<svg width="33" height="40" viewBox="0 0 33 40" fill="none" xmlns="http://www.w3.org/2000/svg">
<rect x="1" y="5" width="31" height="34" stroke="#046791" stroke-width="2"/>
<line y1="12" x2="33" y2="12" stroke="#046791" stroke-width="2"/>
<line x1="9.08325" y1="9" x2="9.08325" y2="4.76851e-08" stroke="#046791" stroke-width="2"/>
<line x1="22.8335" y1="9" x2="22.8335" y2="4.76851e-08" stroke="#046791" stroke-width="2"/>
<path fill-rule="evenodd" clip-rule="evenodd" d="M16.25 33C20.6683 33 24.25 29.4183 24.25 25C24.25 20.5817 20.6683 17 16.25 17C11.8317 17 8.25 20.5817 8.25 25C8.25 29.4183 11.8317 33 16.25 33ZM16.25 18.5238V24.8095V31.4762C19.8267 31.4762 22.7262 28.5767 22.7262 25C22.7262 21.4233 19.8267 18.5238 16.25 18.5238Z" fill="#046791"/>
</svg>
