<svg width="17" height="17" viewBox="0 0 17 17" fill="none" xmlns="http://www.w3.org/2000/svg">
<path fill-rule="evenodd" clip-rule="evenodd" d="M0.853553 0.146447L8.14589 7.43889L15.4393 0.146447C15.6346 -0.0488155 15.9512 -0.0488155 16.1464 0.146447C16.3417 0.341709 16.3417 0.658291 16.1464 0.853553L8.85289 8.14589L16.1464 15.4393C16.3417 15.6346 16.3417 15.9512 16.1464 16.1464C15.9512 16.3417 15.6346 16.3417 15.4393 16.1464L8.14589 8.85289L0.853553 16.1464C0.658291 16.3417 0.341709 16.3417 0.146447 16.1464C-0.0488155 15.9512 -0.0488155 15.6346 0.146447 15.4393L7.43889 8.14589L0.146447 0.853553C-0.0488155 0.658291 -0.0488155 0.341709 0.146447 0.146447C0.341709 -0.0488155 0.658291 -0.0488155 0.853553 0.146447Z" fill="white"/>
</svg>
