<svg width="50" height="50" viewBox="0 0 50 50" fill="none" xmlns="http://www.w3.org/2000/svg">
<g filter="url(#filter0_d)">
<circle cx="25" cy="25" r="20" fill="#026666"/>
</g>
<path fill-rule="evenodd" clip-rule="evenodd" d="M25.2754 34.188L16.8777 25.4958C16.398 24.9993 15.6785 25.744 16.1582 26.2405L24.9156 35.3051C25.0447 35.4387 25.1912 35.4824 25.3584 35.4617C25.4528 35.4446 25.5479 35.3953 25.6351 35.3051L34.3925 26.2405C34.8722 25.744 34.1527 24.9993 33.6731 25.4958L25.2754 34.188Z" fill="#A3E8FF" stroke="#A3E8FF"/>
<path d="M25.1931 34C24.7512 34 24.3931 33.6418 24.3931 33.2L24.3931 14.8C24.3931 14.3582 24.7512 14 25.1931 14C25.6349 14 25.9931 14.3582 25.9931 14.8L25.9931 33.2C25.9931 33.6418 25.6349 34 25.1931 34Z" fill="#A3E8FF"/>
<defs>
<filter id="filter0_d" x="0" y="0" width="50" height="50" filterUnits="userSpaceOnUse" color-interpolation-filters="sRGB">
<feFlood flood-opacity="0" result="BackgroundImageFix"/>
<feColorMatrix in="SourceAlpha" type="matrix" values="0 0 0 0 0 0 0 0 0 0 0 0 0 0 0 0 0 0 127 0" result="hardAlpha"/>
<feOffset/>
<feGaussianBlur stdDeviation="2.5"/>
<feComposite in2="hardAlpha" operator="out"/>
<feColorMatrix type="matrix" values="0 0 0 0 0 0 0 0 0 0 0 0 0 0 0 0 0 0 0.25 0"/>
<feBlend mode="normal" in2="BackgroundImageFix" result="effect1_dropShadow"/>
<feBlend mode="normal" in="SourceGraphic" in2="effect1_dropShadow" result="shape"/>
</filter>
</defs>
</svg>
