<svg width="14" height="16" viewBox="0 0 14 16" fill="none" xmlns="http://www.w3.org/2000/svg">
<g id="Icon / PDF" clip-path="url(#clip0_337_2117)">
<path id="Vector" d="M8.713 0.367001L12.2982 3.9501V15.633H1.70746V0.367001H8.713Z" fill="white"/>
<path id="Vector_2" d="M8.56116 0.734229L11.9312 4.10223V15.2652H2.07437V0.733229L8.56116 0.734229ZM8.865 -0.00101089H1.34042V15.999H12.6649V3.79699L8.865 -0.00101089Z" fill="black"/>
<path id="Vector_3" d="M8.42949 0.734228V4.23733H11.9315V15.2653H2.07465V0.733328L8.42949 0.734228ZM8.86521 -0.000911713H1.34064V15.9991H12.6651V3.79709L12.3702 3.50229H9.16315V0.297288L8.86521 -0.000911713Z" fill="black"/>
<path id="Vector_4" d="M9.77457 2.3705L10.3439 2.92595H9.77457V2.3705ZM9.5451 1.121H9.04056V3.6602H11.5484V3.07547L9.5451 1.121Z" fill="black"/>
<path id="Vector_5" d="M9.40811 1.5L11.1826 3.2311V3.294H9.40811V1.5Z" fill="black"/>
<g id="Group">
<path id="Vector_6" d="M12.964 6.285L13.6398 6.9614V12.322H0.365906V6.9614L1.0424 6.285V7.1363H12.964V6.285Z" fill="#ED1C24"/>
<path id="Vector_7" d="M13.2619 7.0046L13.3421 7.08477V12.0235H0.663971V7.08477L0.744116 7.0046V7.43422H13.2613L13.2619 7.0046ZM12.6649 5.5643V6.8376H1.34041V5.5643L0.0675049 6.8376V12.6197H13.9382V6.8376L12.6649 5.5643Z" fill="#ED1C24"/>
</g>
<g id="Group_2">
<path id="Vector_8" d="M2.88711 10.594H2.54322V12.0268H0.863739V7.44018H2.79914C3.45494 7.44018 3.93209 7.56328 4.2307 7.80947C4.52928 8.05567 4.67856 8.46189 4.67856 9.02817C4.67856 9.59445 4.53461 9.99818 4.2467 10.2394C3.95878 10.4758 3.50559 10.594 2.88711 10.594ZM2.96709 9.52298C3.01507 9.4442 3.03907 9.31125 3.03907 9.12414C3.03907 8.93704 3.01241 8.80409 2.95909 8.72531C2.91111 8.64653 2.81781 8.60714 2.67918 8.60714H2.51123V9.64114H2.71917C2.8418 9.64114 2.92443 9.60176 2.96709 9.52298Z" fill="white"/>
<path id="Vector_9" d="M9.36023 9.6336C9.36023 11.2289 8.57114 12.0266 6.99296 12.0266H5.06555V7.44H7.03294C7.88068 7.44 8.4805 7.62957 8.83239 8.00871C9.18428 8.38293 9.36023 8.92455 9.36023 9.6336ZM6.96896 10.8744C7.24088 10.8744 7.41683 10.7883 7.4968 10.6159C7.57678 10.4436 7.61676 10.158 7.61676 9.75916C7.61676 9.3554 7.57145 9.06981 7.48081 8.9024C7.3955 8.73006 7.21422 8.64389 6.93697 8.64389H6.76903V10.8744L6.96896 10.8744Z" fill="white"/>
<path id="Vector_10" d="M13.1399 8.6587H11.5724V9.28649H12.6761V10.35H11.5724V12.0266H9.86096V7.43999H13.1399V8.6587Z" fill="white"/>
</g>
</g>
<defs>
<clipPath id="clip0_337_2117">
<rect width="13.9957" height="16" fill="white"/>
</clipPath>
</defs>
</svg>
