<svg width="380" height="215" viewBox="0 0 380 215" fill="none" xmlns="http://www.w3.org/2000/svg">
<rect width="380" height="215" fill="#EEFAFE"/>
<rect x="0.5" y="0.5" width="379" height="214" stroke="#D6D7D9"/>
<g clip-path="url(#clip0)">
<path d="M250.769 67.3239H217.266V163.901H250.769V67.3239Z" fill="#16415F"/>
<path d="M339.505 51.6237H218.495C217.462 51.6237 216.624 52.4616 216.624 53.495V162.03C216.624 163.063 217.462 163.901 218.495 163.901H339.505C340.538 163.901 341.376 163.063 341.376 162.03V53.495C341.376 52.4616 340.538 51.6237 339.505 51.6237Z" stroke="#16415F" stroke-width="1.5" stroke-miterlimit="10"/>
<path d="M217.266 67.3239H341.083" stroke="#16415F" stroke-width="1.5" stroke-miterlimit="10"/>
<path d="M224.945 62.1054C226.667 62.1054 228.064 60.7085 228.064 58.9854C228.064 57.2622 226.667 55.8654 224.945 55.8654C223.222 55.8654 221.826 57.2622 221.826 58.9854C221.826 60.7085 223.222 62.1054 224.945 62.1054Z" stroke="#16415F" stroke-width="1.5" stroke-miterlimit="10"/>
<path d="M233.989 62.1054C235.712 62.1054 237.108 60.7085 237.108 58.9854C237.108 57.2622 235.712 55.8654 233.989 55.8654C232.267 55.8654 230.87 57.2622 230.87 58.9854C230.87 60.7085 232.267 62.1054 233.989 62.1054Z" stroke="#16415F" stroke-width="1.5" stroke-miterlimit="10"/>
<path d="M243.664 62.1054C245.386 62.1054 246.783 60.7085 246.783 58.9854C246.783 57.2622 245.386 55.8654 243.664 55.8654C241.941 55.8654 240.545 57.2622 240.545 58.9854C240.545 60.7085 241.941 62.1054 243.664 62.1054Z" stroke="#16415F" stroke-width="1.5" stroke-miterlimit="10"/>
<path d="M266.749 120.4H278.145" stroke="#16415F" stroke-width="1.5" stroke-miterlimit="10"/>
<path d="M282.749 120.4H320.025" stroke="#16415F" stroke-width="1.5" stroke-miterlimit="10"/>
<path d="M266.749 108.087H293.995" stroke="#16415F" stroke-width="1.5" stroke-miterlimit="10"/>
<path d="M298.125 108.087H313.482" stroke="#16415F" stroke-width="1.5" stroke-miterlimit="10"/>
<path d="M266.749 132.713H324.036" stroke="#16415F" stroke-width="1.5" stroke-miterlimit="10"/>
<path d="M266.749 95.7737H322.177" stroke="#16415F" stroke-width="1.5" stroke-miterlimit="10"/>
<path d="M266.749 145.02H303.95" stroke="#16415F" stroke-width="1.5" stroke-miterlimit="10"/>
<path d="M223.654 120.4H239.036" stroke="#EEF8FD" stroke-width="1.5" stroke-miterlimit="10"/>
<path d="M223.654 108.087H233.59" stroke="#EEF8FD" stroke-width="1.5" stroke-miterlimit="10"/>
<path d="M223.654 83.4668H242.579" stroke="#EEF8FD" stroke-width="1.5" stroke-miterlimit="10"/>
<path d="M223.654 132.713H243.863" stroke="#EEF8FD" stroke-width="1.5" stroke-miterlimit="10"/>
<path d="M223.654 95.7737H241.992" stroke="#EEF8FD" stroke-width="1.5" stroke-miterlimit="10"/>
<path d="M223.654 145.02H231.513" stroke="#EEF8FD" stroke-width="1.5" stroke-miterlimit="10"/>
<path d="M308.729 145.02H317.835" stroke="#16415F" stroke-width="1.5" stroke-miterlimit="10"/>
<path d="M268.625 85L266.762 79.6343H266.727C266.777 80.4312 266.802 81.1782 266.802 81.8755V85H265.848V78.5752H267.329L269.113 83.686H269.14L270.977 78.5752H272.462V85H271.451V81.8228C271.451 81.5034 271.458 81.0874 271.473 80.5747C271.491 80.062 271.505 79.7515 271.517 79.6431H271.482L269.553 85H268.625ZM275.807 85.0879C275.051 85.0879 274.459 84.8682 274.031 84.4287C273.606 83.9863 273.394 83.3784 273.394 82.605C273.394 81.811 273.592 81.187 273.987 80.7329C274.383 80.2788 274.926 80.0518 275.618 80.0518C276.259 80.0518 276.766 80.2466 277.138 80.6362C277.51 81.0259 277.696 81.562 277.696 82.2446V82.8027H274.457C274.472 83.2744 274.599 83.6377 274.84 83.8926C275.08 84.1445 275.418 84.2705 275.855 84.2705C276.142 84.2705 276.409 84.2441 276.655 84.1914C276.904 84.1357 277.17 84.0449 277.454 83.9189V84.7583C277.202 84.8784 276.948 84.9634 276.69 85.0132C276.432 85.063 276.138 85.0879 275.807 85.0879ZM275.618 80.834C275.289 80.834 275.026 80.938 274.827 81.146C274.63 81.354 274.513 81.6572 274.475 82.0557H276.681C276.675 81.6543 276.578 81.3511 276.391 81.146C276.203 80.938 275.946 80.834 275.618 80.834ZM280.149 85.0879C279.542 85.0879 279.069 84.8682 278.729 84.4287C278.389 83.9893 278.219 83.3726 278.219 82.5786C278.219 81.7817 278.391 81.1621 278.734 80.7197C279.079 80.2744 279.557 80.0518 280.166 80.0518C280.805 80.0518 281.291 80.2876 281.625 80.7593H281.678C281.628 80.4106 281.603 80.1353 281.603 79.9331V78.1621H282.64V85H281.832L281.652 84.3628H281.603C281.272 84.8462 280.787 85.0879 280.149 85.0879ZM280.426 84.2529C280.85 84.2529 281.159 84.1343 281.353 83.897C281.546 83.6567 281.646 83.2686 281.652 82.7324V82.5874C281.652 81.9751 281.552 81.54 281.353 81.2822C281.154 81.0244 280.842 80.8955 280.417 80.8955C280.053 80.8955 279.774 81.0435 279.577 81.3394C279.381 81.6323 279.283 82.0513 279.283 82.5962C279.283 83.1353 279.378 83.5469 279.569 83.8311C279.759 84.1123 280.045 84.2529 280.426 84.2529ZM284.79 85H283.757V80.1396H284.79V85ZM283.695 78.8521C283.695 78.6675 283.745 78.5254 283.845 78.4258C283.947 78.3262 284.092 78.2764 284.28 78.2764C284.462 78.2764 284.602 78.3262 284.702 78.4258C284.804 78.5254 284.856 78.6675 284.856 78.8521C284.856 79.0278 284.804 79.167 284.702 79.2695C284.602 79.3691 284.462 79.4189 284.28 79.4189C284.092 79.4189 283.947 79.3691 283.845 79.2695C283.745 79.167 283.695 79.0278 283.695 78.8521ZM287.871 85.0879C287.135 85.0879 286.576 84.874 286.192 84.4463C285.811 84.0156 285.621 83.3989 285.621 82.5962C285.621 81.7788 285.82 81.1504 286.218 80.7109C286.62 80.2715 287.198 80.0518 287.954 80.0518C288.467 80.0518 288.928 80.147 289.338 80.3374L289.026 81.168C288.59 80.998 288.229 80.9131 287.945 80.9131C287.104 80.9131 286.684 81.4712 286.684 82.5874C286.684 83.1323 286.788 83.5425 286.996 83.8179C287.207 84.0903 287.515 84.2266 287.919 84.2266C288.379 84.2266 288.814 84.1123 289.224 83.8838V84.7847C289.039 84.8931 288.842 84.9707 288.631 85.0176C288.423 85.0645 288.169 85.0879 287.871 85.0879ZM293.048 85L292.841 84.3232H292.806C292.572 84.6191 292.336 84.8213 292.098 84.9297C291.861 85.0352 291.556 85.0879 291.184 85.0879C290.707 85.0879 290.333 84.959 290.064 84.7012C289.797 84.4434 289.664 84.0786 289.664 83.6069C289.664 83.106 289.85 82.728 290.222 82.4731C290.594 82.2183 291.161 82.0791 291.923 82.0557L292.762 82.0293V81.77C292.762 81.4595 292.689 81.228 292.542 81.0757C292.399 80.9204 292.175 80.8428 291.87 80.8428C291.621 80.8428 291.382 80.8794 291.154 80.9526C290.925 81.0259 290.705 81.1123 290.494 81.2119L290.16 80.4736C290.424 80.3359 290.713 80.2319 291.026 80.1616C291.34 80.0884 291.636 80.0518 291.914 80.0518C292.532 80.0518 292.998 80.1865 293.311 80.4561C293.628 80.7256 293.786 81.1489 293.786 81.7261V85H293.048ZM291.51 84.2969C291.885 84.2969 292.185 84.1929 292.41 83.9849C292.639 83.7739 292.753 83.4795 292.753 83.1016V82.6797L292.129 82.7061C291.643 82.7236 291.288 82.8057 291.066 82.9521C290.846 83.0957 290.736 83.3169 290.736 83.6157C290.736 83.8325 290.801 84.001 290.929 84.1211C291.058 84.2383 291.252 84.2969 291.51 84.2969ZM295.9 85H294.867V80.1396H295.9V85ZM294.806 78.8521C294.806 78.6675 294.856 78.5254 294.955 78.4258C295.058 78.3262 295.203 78.2764 295.39 78.2764C295.572 78.2764 295.713 78.3262 295.812 78.4258C295.915 78.5254 295.966 78.6675 295.966 78.8521C295.966 79.0278 295.915 79.167 295.812 79.2695C295.713 79.3691 295.572 79.4189 295.39 79.4189C295.203 79.4189 295.058 79.3691 294.955 79.2695C294.856 79.167 294.806 79.0278 294.806 78.8521ZM298.66 85.0879C298.054 85.0879 297.581 84.8682 297.241 84.4287C296.901 83.9893 296.731 83.3726 296.731 82.5786C296.731 81.7817 296.902 81.1621 297.245 80.7197C297.591 80.2744 298.068 80.0518 298.678 80.0518C299.316 80.0518 299.803 80.2876 300.137 80.7593H300.189C300.14 80.4106 300.115 80.1353 300.115 79.9331V78.1621H301.152V85H300.343L300.163 84.3628H300.115C299.784 84.8462 299.299 85.0879 298.66 85.0879ZM298.937 84.2529C299.362 84.2529 299.671 84.1343 299.864 83.897C300.058 83.6567 300.157 83.2686 300.163 82.7324V82.5874C300.163 81.9751 300.063 81.54 299.864 81.2822C299.665 81.0244 299.353 80.8955 298.928 80.8955C298.565 80.8955 298.285 81.0435 298.089 81.3394C297.893 81.6323 297.794 82.0513 297.794 82.5962C297.794 83.1353 297.89 83.5469 298.08 83.8311C298.271 84.1123 298.556 84.2529 298.937 84.2529ZM305.49 79.9595C305.49 80.144 305.538 80.3184 305.635 80.4824C305.735 80.6465 305.872 80.8208 306.048 81.0054C306.379 80.8179 306.611 80.6436 306.742 80.4824C306.877 80.3184 306.945 80.1353 306.945 79.9331C306.945 79.7427 306.88 79.5903 306.751 79.4761C306.625 79.3618 306.457 79.3047 306.246 79.3047C306.014 79.3047 305.83 79.3647 305.692 79.4849C305.557 79.6021 305.49 79.7603 305.49 79.9595ZM306.145 84.2002C306.681 84.2002 307.139 84.0435 307.52 83.73L305.837 82.0732C305.527 82.2725 305.313 82.46 305.196 82.6357C305.078 82.8086 305.02 83.0063 305.02 83.229C305.02 83.5161 305.121 83.7505 305.323 83.9321C305.528 84.1108 305.802 84.2002 306.145 84.2002ZM303.93 83.2993C303.93 82.9155 304.024 82.5815 304.211 82.2974C304.399 82.0103 304.737 81.7261 305.226 81.4448C304.948 81.1196 304.758 80.8457 304.655 80.623C304.555 80.3975 304.506 80.1646 304.506 79.9243C304.506 79.479 304.664 79.1274 304.98 78.8696C305.3 78.6118 305.727 78.4829 306.263 78.4829C306.782 78.4829 307.189 78.6089 307.485 78.8608C307.781 79.1099 307.929 79.4468 307.929 79.8716C307.929 80.2056 307.829 80.5088 307.63 80.7812C307.434 81.0537 307.104 81.3262 306.641 81.5986L308.162 83.0664C308.399 82.7529 308.597 82.293 308.755 81.6865H309.819C309.614 82.5186 309.285 83.1968 308.834 83.7212L310.157 85H308.825L308.171 84.3628C307.872 84.603 307.552 84.7847 307.213 84.9077C306.876 85.0278 306.502 85.0879 306.092 85.0879C305.418 85.0879 304.889 84.9282 304.506 84.6089C304.122 84.2896 303.93 83.853 303.93 83.2993ZM315.37 79.3838C314.766 79.3838 314.291 79.5977 313.946 80.0254C313.6 80.4531 313.427 81.0435 313.427 81.7964C313.427 82.5845 313.593 83.1807 313.924 83.585C314.258 83.9893 314.74 84.1914 315.37 84.1914C315.642 84.1914 315.906 84.165 316.161 84.1123C316.415 84.0566 316.681 83.9863 316.956 83.9014V84.8022C316.452 84.9927 315.881 85.0879 315.242 85.0879C314.302 85.0879 313.58 84.8037 313.076 84.2354C312.572 83.6641 312.32 82.8481 312.32 81.7876C312.32 81.1196 312.441 80.5352 312.685 80.0342C312.931 79.5332 313.285 79.1494 313.748 78.8828C314.211 78.6162 314.754 78.4829 315.378 78.4829C316.035 78.4829 316.641 78.6206 317.198 78.896L316.82 79.7705C316.603 79.668 316.373 79.5786 316.13 79.5024C315.89 79.4233 315.636 79.3838 315.37 79.3838ZM323.047 85H321.993V82.104H319.031V85H317.98V78.5752H319.031V81.2031H321.993V78.5752H323.047V85ZM324.379 85V78.5752H325.429V85H324.379ZM331.024 80.5176C331.024 81.1885 330.804 81.7026 330.365 82.0601C329.925 82.4175 329.3 82.5962 328.488 82.5962H327.82V85H326.77V78.5752H328.62C329.423 78.5752 330.023 78.7393 330.422 79.0674C330.823 79.3955 331.024 79.8789 331.024 80.5176ZM327.82 81.7129H328.378C328.918 81.7129 329.313 81.6191 329.565 81.4316C329.817 81.2441 329.943 80.9512 329.943 80.5527C329.943 80.1836 329.83 79.9082 329.605 79.7266C329.379 79.5449 329.027 79.4541 328.55 79.4541H327.82V81.7129Z" fill="#16415F"/>
</g>
<path d="M191.431 89.8235L209.217 107.609L191.431 125.395" stroke="#026666" stroke-width="1.25" stroke-linecap="round" stroke-linejoin="round"/>
<path d="M168 107.608L209.215 107.608" stroke="#026666" stroke-width="1.25" stroke-linecap="round" stroke-linejoin="round"/>
<g clip-path="url(#clip1)">
<path d="M158.505 51.6237H37.4951C36.4616 51.6237 35.6238 52.4616 35.6238 53.495V162.03C35.6238 163.063 36.4616 163.901 37.4951 163.901H158.505C159.538 163.901 160.376 163.063 160.376 162.03V53.495C160.376 52.4616 159.538 51.6237 158.505 51.6237Z" stroke="#5797CD" stroke-width="1.5" stroke-miterlimit="10"/>
<path d="M36.2662 67.3239H160.083" stroke="#5697CE" stroke-width="1.5" stroke-miterlimit="10"/>
<path d="M43.9447 62.1054C45.6672 62.1054 47.0636 60.7085 47.0636 58.9854C47.0636 57.2622 45.6672 55.8654 43.9447 55.8654C42.2223 55.8654 40.8259 57.2622 40.8259 58.9854C40.8259 60.7085 42.2223 62.1054 43.9447 62.1054Z" stroke="#5697CE" stroke-width="1.5" stroke-miterlimit="10"/>
<path d="M52.9893 62.1054C54.7118 62.1054 56.1081 60.7085 56.1081 58.9854C56.1081 57.2622 54.7118 55.8654 52.9893 55.8654C51.2668 55.8654 49.8705 57.2622 49.8705 58.9854C49.8705 60.7085 51.2668 62.1054 52.9893 62.1054Z" stroke="#5697CE" stroke-width="1.5" stroke-miterlimit="10"/>
<path d="M62.6639 62.1054C64.3863 62.1054 65.7827 60.7085 65.7827 58.9854C65.7827 57.2622 64.3863 55.8654 62.6639 55.8654C60.9414 55.8654 59.545 57.2622 59.545 58.9854C59.545 60.7085 60.9414 62.1054 62.6639 62.1054Z" stroke="#5697CE" stroke-width="1.5" stroke-miterlimit="10"/>
<path d="M67.8848 120.4H102.984" stroke="#5797CD" stroke-width="1.5" stroke-miterlimit="10"/>
<path d="M108.835 120.4H127.398" stroke="#5797CD" stroke-width="1.5" stroke-miterlimit="10"/>
<path d="M67.8848 108.087H123.824" stroke="#5797CD" stroke-width="1.5" stroke-miterlimit="10"/>
<path d="M67.8848 132.713H125.171" stroke="#5797CD" stroke-width="1.5" stroke-miterlimit="10"/>
<path d="M67.8848 95.7737H110.831" stroke="#5797CD" stroke-width="1.5" stroke-miterlimit="10"/>
<path d="M67.8848 145.02H79.5117" stroke="#5797CD" stroke-width="1.5" stroke-miterlimit="10"/>
<path d="M86.7848 145.02H118.965" stroke="#5797CD" stroke-width="1.5" stroke-miterlimit="10"/>
<path d="M70.8608 86.0879C70.105 86.0879 69.5132 85.8682 69.0854 85.4287C68.6606 84.9863 68.4482 84.3784 68.4482 83.605C68.4482 82.811 68.646 82.187 69.0415 81.7329C69.437 81.2788 69.9805 81.0518 70.6719 81.0518C71.3135 81.0518 71.8203 81.2466 72.1924 81.6362C72.5645 82.0259 72.7505 82.562 72.7505 83.2446V83.8027H69.5117C69.5264 84.2744 69.6538 84.6377 69.894 84.8926C70.1343 85.1445 70.4727 85.2705 70.9092 85.2705C71.1963 85.2705 71.4629 85.2441 71.709 85.1914C71.958 85.1357 72.2246 85.0449 72.5088 84.9189V85.7583C72.2568 85.8784 72.002 85.9634 71.7441 86.0132C71.4863 86.063 71.1919 86.0879 70.8608 86.0879ZM70.6719 81.834C70.3438 81.834 70.0801 81.938 69.8809 82.146C69.6846 82.354 69.5674 82.6572 69.5293 83.0557H71.7354C71.7295 82.6543 71.6328 82.3511 71.4453 82.146C71.2578 81.938 71 81.834 70.6719 81.834ZM76.4971 80.3838C75.8936 80.3838 75.419 80.5977 75.0733 81.0254C74.7276 81.4531 74.5547 82.0435 74.5547 82.7964C74.5547 83.5845 74.7202 84.1807 75.0513 84.585C75.3853 84.9893 75.8672 85.1914 76.4971 85.1914C76.7696 85.1914 77.0332 85.165 77.2881 85.1123C77.543 85.0566 77.8081 84.9863 78.0835 84.9014V85.8022C77.5796 85.9927 77.0083 86.0879 76.3696 86.0879C75.4292 86.0879 74.7071 85.8037 74.2031 85.2354C73.6992 84.6641 73.4473 83.8481 73.4473 82.7876C73.4473 82.1196 73.5689 81.5352 73.812 81.0342C74.0581 80.5332 74.4126 80.1494 74.8755 79.8828C75.3384 79.6162 75.8819 79.4829 76.5059 79.4829C77.1621 79.4829 77.7686 79.6206 78.3252 79.896L77.9473 80.7705C77.7305 80.668 77.5005 80.5786 77.2573 80.5024C77.0171 80.4233 76.7637 80.3838 76.4971 80.3838ZM80.2393 86H79.1978V79.5752H82.8233V80.4629H80.2393V82.4712H82.6607V83.3633H80.2393V86ZM84.7681 82.5635H85.4976C85.9869 82.5635 86.3414 82.4727 86.5611 82.291C86.7808 82.1094 86.8907 81.8398 86.8907 81.4824C86.8907 81.1191 86.772 80.8584 86.5347 80.7002C86.2974 80.542 85.94 80.4629 85.4625 80.4629H84.7681V82.5635ZM84.7681 83.4336V86H83.7178V79.5752H85.5328C86.3619 79.5752 86.9756 79.7305 87.3741 80.041C87.7725 80.3516 87.9717 80.8203 87.9717 81.4473C87.9717 82.2471 87.5557 82.8169 86.7237 83.1567L88.5386 86H87.3433L85.8052 83.4336H84.7681Z" fill="#5797CD"/>
</g>
<defs>
<clipPath id="clip0">
<rect width="126" height="113.525" fill="white" transform="translate(216 51)"/>
</clipPath>
<clipPath id="clip1">
<rect width="126" height="113.525" fill="white" transform="translate(35 51)"/>
</clipPath>
</defs>
</svg>
