<svg width="380" height="218" viewBox="0 0 380 218" fill="none" xmlns="http://www.w3.org/2000/svg">
<path d="M58.5713 199.264C57.6325 199.264 56.8942 199.596 56.3564 200.262C55.8187 200.927 55.5498 201.845 55.5498 203.017C55.5498 204.243 55.8073 205.17 56.3223 205.799C56.8418 206.428 57.5915 206.742 58.5713 206.742C58.9951 206.742 59.4053 206.701 59.8018 206.619C60.1982 206.533 60.6107 206.423 61.0391 206.291V207.692C60.2552 207.989 59.3665 208.137 58.373 208.137C56.9102 208.137 55.7868 207.695 55.0029 206.811C54.2191 205.922 53.8271 204.653 53.8271 203.003C53.8271 201.964 54.0163 201.055 54.3945 200.275C54.7773 199.496 55.3288 198.899 56.0488 198.484C56.7689 198.07 57.6143 197.862 58.585 197.862C59.6058 197.862 60.5492 198.076 61.415 198.505L60.8271 199.865C60.4899 199.706 60.1322 199.567 59.7539 199.448C59.3802 199.325 58.986 199.264 58.5713 199.264ZM67.5127 208L64.6143 199.653H64.5596C64.637 200.893 64.6758 202.055 64.6758 203.14V208H63.1924V198.006H65.4961L68.2715 205.956H68.3125L71.1699 198.006H73.4805V208H71.9082V203.058C71.9082 202.561 71.9196 201.914 71.9424 201.116C71.9697 200.319 71.9925 199.836 72.0107 199.667H71.9561L68.9551 208H67.5127ZM80.3643 199.264C79.4255 199.264 78.6872 199.596 78.1494 200.262C77.6117 200.927 77.3428 201.845 77.3428 203.017C77.3428 204.243 77.6003 205.17 78.1152 205.799C78.6348 206.428 79.3844 206.742 80.3643 206.742C80.7881 206.742 81.1982 206.701 81.5947 206.619C81.9912 206.533 82.4036 206.423 82.832 206.291V207.692C82.0482 207.989 81.1595 208.137 80.166 208.137C78.7031 208.137 77.5798 207.695 76.7959 206.811C76.012 205.922 75.6201 204.653 75.6201 203.003C75.6201 201.964 75.8092 201.055 76.1875 200.275C76.5703 199.496 77.1217 198.899 77.8418 198.484C78.5618 198.07 79.4072 197.862 80.3779 197.862C81.3988 197.862 82.3421 198.076 83.208 198.505L82.6201 199.865C82.2829 199.706 81.9251 199.567 81.5469 199.448C81.1732 199.325 80.779 199.264 80.3643 199.264ZM90.748 205.286C90.748 206.175 90.4268 206.872 89.7842 207.378C89.1416 207.884 88.2552 208.137 87.125 208.137C85.9948 208.137 85.0697 207.961 84.3496 207.61V206.065C84.8053 206.28 85.2884 206.448 85.7988 206.571C86.3138 206.694 86.7923 206.756 87.2344 206.756C87.8815 206.756 88.3577 206.633 88.6631 206.387C88.973 206.141 89.1279 205.81 89.1279 205.396C89.1279 205.022 88.9867 204.705 88.7041 204.445C88.4215 204.186 87.8382 203.878 86.9541 203.522C86.0426 203.153 85.4001 202.732 85.0264 202.258C84.6527 201.784 84.4658 201.214 84.4658 200.549C84.4658 199.715 84.762 199.059 85.3545 198.58C85.9469 198.102 86.7422 197.862 87.7402 197.862C88.6973 197.862 89.6497 198.072 90.5977 198.491L90.0781 199.824C89.1895 199.451 88.3965 199.264 87.6992 199.264C87.1706 199.264 86.7695 199.38 86.4961 199.612C86.2227 199.84 86.0859 200.143 86.0859 200.521C86.0859 200.781 86.1406 201.005 86.25 201.191C86.3594 201.374 86.5394 201.547 86.79 201.711C87.0407 201.875 87.4919 202.091 88.1436 202.36C88.8773 202.666 89.415 202.951 89.7568 203.215C90.0986 203.479 90.3493 203.778 90.5088 204.11C90.6683 204.443 90.748 204.835 90.748 205.286ZM96.3193 208V198.006H97.9531V208H96.3193ZM107.079 208H105.466V203.352C105.466 202.768 105.347 202.333 105.11 202.046C104.878 201.759 104.507 201.615 103.996 201.615C103.317 201.615 102.82 201.816 102.506 202.217C102.191 202.618 102.034 203.29 102.034 204.233V208H100.428V200.439H101.686L101.911 201.431H101.993C102.221 201.071 102.545 200.793 102.964 200.597C103.383 200.401 103.848 200.303 104.358 200.303C106.172 200.303 107.079 201.226 107.079 203.071V208ZM113.108 201.656H111.263V208H109.649V201.656H108.405V200.904L109.649 200.412V199.92C109.649 199.027 109.859 198.366 110.278 197.938C110.698 197.505 111.338 197.288 112.199 197.288C112.764 197.288 113.32 197.382 113.867 197.568L113.443 198.785C113.047 198.658 112.669 198.594 112.309 198.594C111.944 198.594 111.677 198.708 111.509 198.936C111.345 199.159 111.263 199.496 111.263 199.947V200.439H113.108V201.656ZM121.106 204.206C121.106 205.441 120.79 206.405 120.156 207.098C119.523 207.79 118.641 208.137 117.511 208.137C116.804 208.137 116.18 207.977 115.638 207.658C115.095 207.339 114.678 206.881 114.387 206.284C114.095 205.687 113.949 204.994 113.949 204.206C113.949 202.98 114.264 202.023 114.893 201.335C115.521 200.647 116.408 200.303 117.552 200.303C118.646 200.303 119.511 200.656 120.149 201.362C120.787 202.064 121.106 203.012 121.106 204.206ZM115.604 204.206C115.604 205.951 116.248 206.824 117.538 206.824C118.814 206.824 119.452 205.951 119.452 204.206C119.452 202.479 118.81 201.615 117.524 201.615C116.85 201.615 116.36 201.839 116.055 202.285C115.754 202.732 115.604 203.372 115.604 204.206ZM126.794 200.303C127.118 200.303 127.384 200.326 127.594 200.371L127.437 201.868C127.209 201.813 126.972 201.786 126.726 201.786C126.083 201.786 125.561 201.996 125.16 202.415C124.764 202.834 124.565 203.379 124.565 204.049V208H122.959V200.439H124.217L124.429 201.772H124.511C124.761 201.321 125.087 200.964 125.488 200.699C125.894 200.435 126.329 200.303 126.794 200.303ZM135.373 208H133.76V203.338C133.76 202.759 133.65 202.328 133.432 202.046C133.213 201.759 132.871 201.615 132.406 201.615C131.786 201.615 131.331 201.818 131.039 202.224C130.752 202.625 130.608 203.295 130.608 204.233V208H129.002V200.439H130.26L130.485 201.431H130.567C130.777 201.071 131.08 200.793 131.477 200.597C131.878 200.401 132.317 200.303 132.796 200.303C133.958 200.303 134.728 200.699 135.106 201.492H135.216C135.439 201.118 135.754 200.827 136.159 200.617C136.565 200.408 137.03 200.303 137.554 200.303C138.456 200.303 139.112 200.531 139.522 200.986C139.937 201.442 140.145 202.137 140.145 203.071V208H138.538V203.338C138.538 202.759 138.426 202.328 138.203 202.046C137.984 201.759 137.643 201.615 137.178 201.615C136.553 201.615 136.095 201.811 135.804 202.203C135.517 202.59 135.373 203.188 135.373 203.994V208ZM147.117 208L146.796 206.947H146.741C146.377 207.408 146.01 207.722 145.641 207.891C145.271 208.055 144.798 208.137 144.219 208.137C143.476 208.137 142.895 207.936 142.476 207.535C142.061 207.134 141.854 206.567 141.854 205.833C141.854 205.054 142.143 204.466 142.722 204.069C143.3 203.673 144.182 203.456 145.367 203.42L146.673 203.379V202.976C146.673 202.493 146.559 202.132 146.331 201.896C146.108 201.654 145.759 201.533 145.285 201.533C144.898 201.533 144.526 201.59 144.171 201.704C143.815 201.818 143.474 201.952 143.146 202.107L142.626 200.959C143.036 200.745 143.485 200.583 143.973 200.474C144.46 200.36 144.921 200.303 145.354 200.303C146.315 200.303 147.04 200.512 147.527 200.932C148.02 201.351 148.266 202.009 148.266 202.907V208H147.117ZM144.725 206.906C145.308 206.906 145.775 206.744 146.126 206.421C146.481 206.093 146.659 205.635 146.659 205.047V204.391L145.688 204.432C144.932 204.459 144.381 204.587 144.034 204.814C143.692 205.038 143.521 205.382 143.521 205.847C143.521 206.184 143.622 206.446 143.822 206.633C144.023 206.815 144.324 206.906 144.725 206.906ZM153.324 206.838C153.716 206.838 154.108 206.776 154.5 206.653V207.863C154.322 207.941 154.092 208.005 153.81 208.055C153.532 208.109 153.242 208.137 152.941 208.137C151.419 208.137 150.658 207.335 150.658 205.73V201.656H149.626V200.945L150.733 200.357L151.28 198.758H152.271V200.439H154.425V201.656H152.271V205.703C152.271 206.09 152.367 206.378 152.559 206.564C152.755 206.747 153.01 206.838 153.324 206.838ZM157.624 208H156.018V200.439H157.624V208ZM155.922 198.437C155.922 198.149 155.999 197.928 156.154 197.773C156.314 197.618 156.539 197.541 156.831 197.541C157.114 197.541 157.332 197.618 157.487 197.773C157.647 197.928 157.727 198.149 157.727 198.437C157.727 198.71 157.647 198.926 157.487 199.086C157.332 199.241 157.114 199.318 156.831 199.318C156.539 199.318 156.314 199.241 156.154 199.086C155.999 198.926 155.922 198.71 155.922 198.437ZM166.634 204.206C166.634 205.441 166.317 206.405 165.684 207.098C165.05 207.79 164.168 208.137 163.038 208.137C162.332 208.137 161.707 207.977 161.165 207.658C160.623 207.339 160.206 206.881 159.914 206.284C159.622 205.687 159.477 204.994 159.477 204.206C159.477 202.98 159.791 202.023 160.42 201.335C161.049 200.647 161.935 200.303 163.079 200.303C164.173 200.303 165.039 200.656 165.677 201.362C166.315 202.064 166.634 203.012 166.634 204.206ZM161.131 204.206C161.131 205.951 161.776 206.824 163.065 206.824C164.341 206.824 164.979 205.951 164.979 204.206C164.979 202.479 164.337 201.615 163.052 201.615C162.377 201.615 161.887 201.839 161.582 202.285C161.281 202.732 161.131 203.372 161.131 204.206ZM175.138 208H173.524V203.352C173.524 202.768 173.406 202.333 173.169 202.046C172.937 201.759 172.565 201.615 172.055 201.615C171.376 201.615 170.879 201.816 170.564 202.217C170.25 202.618 170.093 203.29 170.093 204.233V208H168.486V200.439H169.744L169.97 201.431H170.052C170.28 201.071 170.603 200.793 171.022 200.597C171.442 200.401 171.907 200.303 172.417 200.303C174.231 200.303 175.138 201.226 175.138 203.071V208ZM181.181 198.006H184.147C185.524 198.006 186.517 198.206 187.128 198.607C187.743 199.008 188.051 199.642 188.051 200.508C188.051 201.091 187.9 201.576 187.6 201.964C187.299 202.351 186.866 202.595 186.301 202.695V202.764C187.003 202.896 187.518 203.158 187.846 203.55C188.178 203.937 188.345 204.464 188.345 205.129C188.345 206.027 188.03 206.731 187.401 207.241C186.777 207.747 185.907 208 184.79 208H181.181V198.006ZM182.814 202.135H184.387C185.07 202.135 185.569 202.028 185.884 201.813C186.198 201.595 186.355 201.226 186.355 200.706C186.355 200.237 186.185 199.897 185.843 199.688C185.506 199.478 184.968 199.373 184.229 199.373H182.814V202.135ZM182.814 203.461V206.626H184.551C185.234 206.626 185.749 206.496 186.096 206.236C186.447 205.972 186.622 205.557 186.622 204.992C186.622 204.473 186.444 204.088 186.089 203.837C185.733 203.586 185.193 203.461 184.469 203.461H182.814ZM195.584 208L195.358 207.009H195.276C195.053 207.36 194.734 207.635 194.319 207.836C193.909 208.036 193.44 208.137 192.911 208.137C191.995 208.137 191.312 207.909 190.86 207.453C190.409 206.997 190.184 206.307 190.184 205.382V200.439H191.804V205.102C191.804 205.68 191.922 206.116 192.159 206.407C192.396 206.694 192.768 206.838 193.273 206.838C193.948 206.838 194.442 206.637 194.757 206.236C195.076 205.831 195.235 205.154 195.235 204.206V200.439H196.849V208H195.584ZM200.745 208H199.139V197.363H200.745V208ZM204.655 208H203.049V197.363H204.655V208ZM210.261 208.137C209.085 208.137 208.164 207.795 207.499 207.111C206.838 206.423 206.508 205.478 206.508 204.274C206.508 203.039 206.815 202.069 207.431 201.362C208.046 200.656 208.891 200.303 209.967 200.303C210.965 200.303 211.753 200.606 212.332 201.212C212.911 201.818 213.2 202.652 213.2 203.714V204.582H208.162C208.185 205.316 208.383 205.881 208.757 206.277C209.131 206.669 209.657 206.865 210.336 206.865C210.783 206.865 211.197 206.824 211.58 206.742C211.967 206.656 212.382 206.514 212.824 206.318V207.624C212.432 207.811 212.036 207.943 211.635 208.021C211.234 208.098 210.776 208.137 210.261 208.137ZM209.967 201.52C209.456 201.52 209.046 201.681 208.736 202.005C208.431 202.328 208.249 202.8 208.189 203.42H211.621C211.612 202.796 211.462 202.324 211.17 202.005C210.878 201.681 210.477 201.52 209.967 201.52ZM217.842 206.838C218.234 206.838 218.626 206.776 219.018 206.653V207.863C218.84 207.941 218.61 208.005 218.327 208.055C218.049 208.109 217.76 208.137 217.459 208.137C215.937 208.137 215.176 207.335 215.176 205.73V201.656H214.144V200.945L215.251 200.357L215.798 198.758H216.789V200.439H218.942V201.656H216.789V205.703C216.789 206.09 216.885 206.378 217.076 206.564C217.272 206.747 217.527 206.838 217.842 206.838ZM222.142 208H220.535V200.439H222.142V208ZM220.439 198.437C220.439 198.149 220.517 197.928 220.672 197.773C220.831 197.618 221.057 197.541 221.349 197.541C221.631 197.541 221.85 197.618 222.005 197.773C222.164 197.928 222.244 198.149 222.244 198.437C222.244 198.71 222.164 198.926 222.005 199.086C221.85 199.241 221.631 199.318 221.349 199.318C221.057 199.318 220.831 199.241 220.672 199.086C220.517 198.926 220.439 198.71 220.439 198.437ZM231.097 208H229.483V203.352C229.483 202.768 229.365 202.333 229.128 202.046C228.896 201.759 228.524 201.615 228.014 201.615C227.335 201.615 226.838 201.816 226.523 202.217C226.209 202.618 226.052 203.29 226.052 204.233V208H224.445V200.439H225.703L225.929 201.431H226.011C226.239 201.071 226.562 200.793 226.981 200.597C227.401 200.401 227.866 200.303 228.376 200.303C230.19 200.303 231.097 201.226 231.097 203.071V208ZM236.341 204.439C236.341 203.318 236.504 202.268 236.83 201.291C237.16 200.313 237.634 199.456 238.251 198.72H239.553C238.965 199.515 238.514 200.408 238.201 201.398C237.888 202.384 237.731 203.394 237.731 204.426C237.731 205.459 237.888 206.46 238.201 207.429C238.514 208.398 238.96 209.274 239.54 210.057H238.251C237.629 209.337 237.155 208.497 236.83 207.537C236.504 206.576 236.341 205.543 236.341 204.439ZM245.12 199.888C244.248 199.888 243.562 200.197 243.063 200.814C242.564 201.432 242.314 202.285 242.314 203.373C242.314 204.511 242.553 205.372 243.031 205.956C243.514 206.54 244.21 206.832 245.12 206.832C245.513 206.832 245.894 206.794 246.262 206.718C246.63 206.637 247.013 206.536 247.411 206.413V207.714C246.683 207.989 245.858 208.127 244.936 208.127C243.577 208.127 242.534 207.716 241.806 206.896C241.078 206.07 240.714 204.892 240.714 203.36C240.714 202.395 240.89 201.551 241.241 200.827C241.597 200.104 242.109 199.549 242.777 199.164C243.446 198.779 244.231 198.586 245.132 198.586C246.08 198.586 246.956 198.785 247.76 199.183L247.214 200.446C246.901 200.298 246.569 200.169 246.218 200.059C245.871 199.945 245.505 199.888 245.12 199.888ZM249.411 208V198.72H250.928V208H249.411ZM253.384 198.72H256.139C257.417 198.72 258.34 198.906 258.907 199.278C259.478 199.651 259.764 200.239 259.764 201.043C259.764 201.585 259.624 202.035 259.345 202.395C259.065 202.755 258.663 202.981 258.139 203.074V203.138C258.79 203.26 259.269 203.504 259.573 203.868C259.882 204.227 260.037 204.716 260.037 205.334C260.037 206.168 259.745 206.821 259.161 207.295C258.581 207.765 257.773 208 256.736 208H253.384V198.72ZM254.901 202.554H256.361C256.996 202.554 257.459 202.454 257.751 202.255C258.043 202.052 258.189 201.709 258.189 201.227C258.189 200.791 258.031 200.476 257.713 200.281C257.4 200.087 256.901 199.989 256.215 199.989H254.901V202.554ZM254.901 203.785V206.724H256.514C257.148 206.724 257.627 206.604 257.948 206.362C258.274 206.117 258.437 205.732 258.437 205.207C258.437 204.725 258.272 204.367 257.942 204.134C257.612 203.902 257.11 203.785 256.438 203.785H254.901ZM264.34 204.439C264.34 205.552 264.175 206.589 263.845 207.549C263.519 208.51 263.048 209.346 262.43 210.057H261.141C261.725 209.265 262.172 208.387 262.48 207.422C262.794 206.458 262.95 205.459 262.95 204.426C262.95 203.389 262.794 202.38 262.48 201.398C262.167 200.412 261.717 199.52 261.128 198.72H262.43C263.052 199.46 263.526 200.321 263.852 201.303C264.177 202.281 264.34 203.326 264.34 204.439Z" fill="#046791"/>
<path fill-rule="evenodd" clip-rule="evenodd" d="M314.915 201.541C314.975 201.601 315.004 201.67 315.004 201.748C315.004 201.828 314.975 201.896 314.915 201.956L310.71 206.161C310.65 206.221 310.581 206.25 310.502 206.25C310.424 206.25 310.355 206.221 310.295 206.161L306.091 201.956C306.031 201.896 306 201.828 306 201.748C306 201.67 306.031 201.601 306.091 201.541L306.541 201.091C306.601 201.03 306.671 201 306.749 201C306.828 201 306.897 201.03 306.957 201.091L310.502 204.635L314.048 201.091C314.108 201.03 314.177 201 314.256 201C314.334 201 314.403 201.03 314.463 201.091L314.915 201.541Z" fill="#046791" stroke="#046791"/>
<line x1="53" y1="178.5" x2="319" y2="178.5" stroke="#D6D7D9"/>
<path d="M60.082 155.786C60.082 156.675 59.7607 157.372 59.1182 157.878C58.4756 158.384 57.5892 158.637 56.459 158.637C55.3288 158.637 54.4036 158.461 53.6836 158.11V156.565C54.1393 156.78 54.6224 156.948 55.1328 157.071C55.6478 157.194 56.1263 157.256 56.5684 157.256C57.2155 157.256 57.6917 157.133 57.9971 156.887C58.307 156.641 58.4619 156.31 58.4619 155.896C58.4619 155.522 58.3206 155.205 58.0381 154.945C57.7555 154.686 57.1722 154.378 56.2881 154.022C55.3766 153.653 54.734 153.232 54.3604 152.758C53.9867 152.284 53.7998 151.714 53.7998 151.049C53.7998 150.215 54.096 149.559 54.6885 149.08C55.2809 148.602 56.0762 148.362 57.0742 148.362C58.0312 148.362 58.9837 148.572 59.9316 148.991L59.4121 150.324C58.5234 149.951 57.7305 149.764 57.0332 149.764C56.5046 149.764 56.1035 149.88 55.8301 150.112C55.5566 150.34 55.4199 150.643 55.4199 151.021C55.4199 151.281 55.4746 151.505 55.584 151.691C55.6934 151.874 55.8734 152.047 56.124 152.211C56.3747 152.375 56.8258 152.591 57.4775 152.86C58.2113 153.166 58.749 153.451 59.0908 153.715C59.4326 153.979 59.6833 154.278 59.8428 154.61C60.0023 154.943 60.082 155.335 60.082 155.786ZM64.6621 157.338C65.054 157.338 65.446 157.276 65.8379 157.153V158.363C65.6602 158.441 65.43 158.505 65.1475 158.555C64.8695 158.609 64.5801 158.637 64.2793 158.637C62.7572 158.637 61.9961 157.835 61.9961 156.23V152.156H60.9639V151.445L62.0713 150.857L62.6182 149.258H63.6094V150.939H65.7627V152.156H63.6094V156.203C63.6094 156.59 63.7051 156.878 63.8965 157.064C64.0924 157.247 64.3477 157.338 64.6621 157.338ZM72.0859 158.5L71.7646 157.447H71.71C71.3454 157.908 70.9785 158.222 70.6094 158.391C70.2402 158.555 69.7663 158.637 69.1875 158.637C68.4447 158.637 67.8636 158.436 67.4443 158.035C67.0296 157.634 66.8223 157.067 66.8223 156.333C66.8223 155.554 67.1117 154.966 67.6904 154.569C68.2692 154.173 69.151 153.956 70.3359 153.92L71.6416 153.879V153.476C71.6416 152.993 71.5277 152.632 71.2998 152.396C71.0765 152.154 70.7279 152.033 70.2539 152.033C69.8665 152.033 69.4951 152.09 69.1396 152.204C68.7842 152.318 68.4424 152.452 68.1143 152.607L67.5947 151.459C68.0049 151.245 68.4538 151.083 68.9414 150.974C69.429 150.86 69.8893 150.803 70.3223 150.803C71.2839 150.803 72.0085 151.012 72.4961 151.432C72.9883 151.851 73.2344 152.509 73.2344 153.407V158.5H72.0859ZM69.6934 157.406C70.2767 157.406 70.7438 157.244 71.0947 156.921C71.4502 156.593 71.6279 156.135 71.6279 155.547V154.891L70.6572 154.932C69.9007 154.959 69.3493 155.087 69.0029 155.314C68.6611 155.538 68.4902 155.882 68.4902 156.347C68.4902 156.684 68.5905 156.946 68.791 157.133C68.9915 157.315 69.2923 157.406 69.6934 157.406ZM78.293 157.338C78.6849 157.338 79.0768 157.276 79.4688 157.153V158.363C79.291 158.441 79.0609 158.505 78.7783 158.555C78.5003 158.609 78.2109 158.637 77.9102 158.637C76.388 158.637 75.627 157.835 75.627 156.23V152.156H74.5947V151.445L75.7021 150.857L76.249 149.258H77.2402V150.939H79.3936V152.156H77.2402V156.203C77.2402 156.59 77.3359 156.878 77.5273 157.064C77.7233 157.247 77.9785 157.338 78.293 157.338ZM84.2881 158.637C83.1123 158.637 82.1917 158.295 81.5264 157.611C80.8656 156.923 80.5352 155.978 80.5352 154.774C80.5352 153.539 80.8428 152.569 81.458 151.862C82.0732 151.156 82.9186 150.803 83.9941 150.803C84.9922 150.803 85.7806 151.106 86.3594 151.712C86.9382 152.318 87.2275 153.152 87.2275 154.214V155.082H82.1895C82.2122 155.816 82.4105 156.381 82.7842 156.777C83.1579 157.169 83.6842 157.365 84.3633 157.365C84.8099 157.365 85.2246 157.324 85.6074 157.242C85.9948 157.156 86.4095 157.014 86.8516 156.818V158.124C86.4596 158.311 86.0632 158.443 85.6621 158.521C85.2611 158.598 84.8031 158.637 84.2881 158.637ZM83.9941 152.02C83.4837 152.02 83.0736 152.181 82.7637 152.505C82.4583 152.828 82.276 153.3 82.2168 153.92H85.6484C85.6393 153.296 85.4889 152.824 85.1973 152.505C84.9056 152.181 84.5046 152.02 83.9941 152.02ZM100.742 158.5H99.1016V153.995H94.4941V158.5H92.8604V148.506H94.4941V152.594H99.1016V148.506H100.742V158.5ZM106.505 158.637C105.329 158.637 104.409 158.295 103.743 157.611C103.082 156.923 102.752 155.978 102.752 154.774C102.752 153.539 103.06 152.569 103.675 151.862C104.29 151.156 105.135 150.803 106.211 150.803C107.209 150.803 107.997 151.106 108.576 151.712C109.155 152.318 109.444 153.152 109.444 154.214V155.082H104.406C104.429 155.816 104.627 156.381 105.001 156.777C105.375 157.169 105.901 157.365 106.58 157.365C107.027 157.365 107.441 157.324 107.824 157.242C108.212 157.156 108.626 157.014 109.068 156.818V158.124C108.676 158.311 108.28 158.443 107.879 158.521C107.478 158.598 107.02 158.637 106.505 158.637ZM106.211 152.02C105.701 152.02 105.29 152.181 104.98 152.505C104.675 152.828 104.493 153.3 104.434 153.92H107.865C107.856 153.296 107.706 152.824 107.414 152.505C107.122 152.181 106.721 152.02 106.211 152.02ZM116 158.5L115.679 157.447H115.624C115.259 157.908 114.893 158.222 114.523 158.391C114.154 158.555 113.68 158.637 113.102 158.637C112.359 158.637 111.778 158.436 111.358 158.035C110.944 157.634 110.736 157.067 110.736 156.333C110.736 155.554 111.026 154.966 111.604 154.569C112.183 154.173 113.065 153.956 114.25 153.92L115.556 153.879V153.476C115.556 152.993 115.442 152.632 115.214 152.396C114.991 152.154 114.642 152.033 114.168 152.033C113.781 152.033 113.409 152.09 113.054 152.204C112.698 152.318 112.356 152.452 112.028 152.607L111.509 151.459C111.919 151.245 112.368 151.083 112.855 150.974C113.343 150.86 113.803 150.803 114.236 150.803C115.198 150.803 115.923 151.012 116.41 151.432C116.902 151.851 117.148 152.509 117.148 153.407V158.5H116ZM113.607 157.406C114.191 157.406 114.658 157.244 115.009 156.921C115.364 156.593 115.542 156.135 115.542 155.547V154.891L114.571 154.932C113.815 154.959 113.263 155.087 112.917 155.314C112.575 155.538 112.404 155.882 112.404 156.347C112.404 156.684 112.505 156.946 112.705 157.133C112.906 157.315 113.206 157.406 113.607 157.406ZM120.997 158.5H119.391V147.863H120.997V158.5ZM126.117 157.338C126.509 157.338 126.901 157.276 127.293 157.153V158.363C127.115 158.441 126.885 158.505 126.603 158.555C126.325 158.609 126.035 158.637 125.734 158.637C124.212 158.637 123.451 157.835 123.451 156.23V152.156H122.419V151.445L123.526 150.857L124.073 149.258H125.064V150.939H127.218V152.156H125.064V156.203C125.064 156.59 125.16 156.878 125.352 157.064C125.548 157.247 125.803 157.338 126.117 157.338ZM135.462 158.5H133.849V153.852C133.849 153.268 133.73 152.833 133.493 152.546C133.261 152.259 132.889 152.115 132.379 152.115C131.704 152.115 131.208 152.318 130.889 152.724C130.574 153.125 130.417 153.799 130.417 154.747V158.5H128.811V147.863H130.417V150.563C130.417 150.996 130.39 151.459 130.335 151.951H130.438C130.656 151.587 130.959 151.304 131.347 151.104C131.739 150.903 132.194 150.803 132.714 150.803C134.546 150.803 135.462 151.726 135.462 153.571V158.5ZM150.378 153.489C150.378 155.116 149.97 156.381 149.154 157.283C148.343 158.186 147.192 158.637 145.702 158.637C144.194 158.637 143.034 158.19 142.223 157.297C141.416 156.399 141.013 155.125 141.013 153.476C141.013 151.826 141.418 150.559 142.229 149.675C143.045 148.791 144.207 148.349 145.716 148.349C147.201 148.349 148.35 148.798 149.161 149.695C149.972 150.593 150.378 151.858 150.378 153.489ZM142.749 153.489C142.749 154.72 142.997 155.654 143.494 156.292C143.991 156.925 144.727 157.242 145.702 157.242C146.673 157.242 147.404 156.928 147.896 156.299C148.393 155.67 148.642 154.733 148.642 153.489C148.642 152.263 148.396 151.334 147.903 150.7C147.416 150.067 146.687 149.75 145.716 149.75C144.736 149.75 143.995 150.067 143.494 150.7C142.997 151.334 142.749 152.263 142.749 153.489ZM156.147 152.156H154.302V158.5H152.688V152.156H151.444V151.404L152.688 150.912V150.42C152.688 149.527 152.898 148.866 153.317 148.438C153.737 148.005 154.377 147.788 155.238 147.788C155.803 147.788 156.359 147.882 156.906 148.068L156.482 149.285C156.086 149.158 155.708 149.094 155.348 149.094C154.983 149.094 154.716 149.208 154.548 149.436C154.384 149.659 154.302 149.996 154.302 150.447V150.939H156.147V152.156ZM161.227 152.156H159.381V158.5H157.768V152.156H156.523V151.404L157.768 150.912V150.42C157.768 149.527 157.977 148.866 158.396 148.438C158.816 148.005 159.456 147.788 160.317 147.788C160.882 147.788 161.438 147.882 161.985 148.068L161.562 149.285C161.165 149.158 160.787 149.094 160.427 149.094C160.062 149.094 159.796 149.208 159.627 149.436C159.463 149.659 159.381 149.996 159.381 150.447V150.939H161.227V152.156ZM164.125 158.5H162.519V150.939H164.125V158.5ZM162.423 148.937C162.423 148.649 162.5 148.428 162.655 148.273C162.815 148.118 163.04 148.041 163.332 148.041C163.615 148.041 163.833 148.118 163.988 148.273C164.148 148.428 164.228 148.649 164.228 148.937C164.228 149.21 164.148 149.426 163.988 149.586C163.833 149.741 163.615 149.818 163.332 149.818C163.04 149.818 162.815 149.741 162.655 149.586C162.5 149.426 162.423 149.21 162.423 148.937ZM169.471 158.637C168.327 158.637 167.456 158.304 166.859 157.639C166.267 156.969 165.971 156.009 165.971 154.761C165.971 153.489 166.281 152.512 166.9 151.828C167.525 151.145 168.425 150.803 169.601 150.803C170.398 150.803 171.116 150.951 171.754 151.247L171.269 152.539C170.59 152.275 170.029 152.143 169.587 152.143C168.279 152.143 167.625 153.011 167.625 154.747C167.625 155.595 167.787 156.233 168.11 156.661C168.438 157.085 168.917 157.297 169.546 157.297C170.261 157.297 170.938 157.119 171.576 156.764V158.165C171.289 158.334 170.981 158.454 170.653 158.527C170.33 158.6 169.936 158.637 169.471 158.637ZM174.96 158.5H173.354V150.939H174.96V158.5ZM173.258 148.937C173.258 148.649 173.335 148.428 173.49 148.273C173.65 148.118 173.875 148.041 174.167 148.041C174.45 148.041 174.668 148.118 174.823 148.273C174.983 148.428 175.062 148.649 175.062 148.937C175.062 149.21 174.983 149.426 174.823 149.586C174.668 149.741 174.45 149.818 174.167 149.818C173.875 149.818 173.65 149.741 173.49 149.586C173.335 149.426 173.258 149.21 173.258 148.937ZM181.994 158.5L181.673 157.447H181.618C181.254 157.908 180.887 158.222 180.518 158.391C180.148 158.555 179.674 158.637 179.096 158.637C178.353 158.637 177.772 158.436 177.353 158.035C176.938 157.634 176.73 157.067 176.73 156.333C176.73 155.554 177.02 154.966 177.599 154.569C178.177 154.173 179.059 153.956 180.244 153.92L181.55 153.879V153.476C181.55 152.993 181.436 152.632 181.208 152.396C180.985 152.154 180.636 152.033 180.162 152.033C179.775 152.033 179.403 152.09 179.048 152.204C178.692 152.318 178.351 152.452 178.022 152.607L177.503 151.459C177.913 151.245 178.362 151.083 178.85 150.974C179.337 150.86 179.798 150.803 180.23 150.803C181.192 150.803 181.917 151.012 182.404 151.432C182.896 151.851 183.143 152.509 183.143 153.407V158.5H181.994ZM179.602 157.406C180.185 157.406 180.652 157.244 181.003 156.921C181.358 156.593 181.536 156.135 181.536 155.547V154.891L180.565 154.932C179.809 154.959 179.257 155.087 178.911 155.314C178.569 155.538 178.398 155.882 178.398 156.347C178.398 156.684 178.499 156.946 178.699 157.133C178.9 157.315 179.201 157.406 179.602 157.406ZM186.991 158.5H185.385V147.863H186.991V158.5ZM193.103 158.5V148.506H194.736V157.099H198.968V158.5H193.103ZM203.821 158.637C202.646 158.637 201.725 158.295 201.06 157.611C200.399 156.923 200.068 155.978 200.068 154.774C200.068 153.539 200.376 152.569 200.991 151.862C201.606 151.156 202.452 150.803 203.527 150.803C204.525 150.803 205.314 151.106 205.893 151.712C206.471 152.318 206.761 153.152 206.761 154.214V155.082H201.723C201.745 155.816 201.944 156.381 202.317 156.777C202.691 157.169 203.217 157.365 203.896 157.365C204.343 157.365 204.758 157.324 205.141 157.242C205.528 157.156 205.943 157.014 206.385 156.818V158.124C205.993 158.311 205.596 158.443 205.195 158.521C204.794 158.598 204.336 158.637 203.821 158.637ZM203.527 152.02C203.017 152.02 202.607 152.181 202.297 152.505C201.992 152.828 201.809 153.3 201.75 153.92H205.182C205.173 153.296 205.022 152.824 204.73 152.505C204.439 152.181 204.038 152.02 203.527 152.02ZM211.402 157.338C211.794 157.338 212.186 157.276 212.578 157.153V158.363C212.4 158.441 212.17 158.505 211.888 158.555C211.61 158.609 211.32 158.637 211.02 158.637C209.497 158.637 208.736 157.835 208.736 156.23V152.156H207.704V151.445L208.812 150.857L209.358 149.258H210.35V150.939H212.503V152.156H210.35V156.203C210.35 156.59 210.445 156.878 210.637 157.064C210.833 157.247 211.088 157.338 211.402 157.338ZM216.912 157.338C217.304 157.338 217.696 157.276 218.088 157.153V158.363C217.91 158.441 217.68 158.505 217.397 158.555C217.119 158.609 216.83 158.637 216.529 158.637C215.007 158.637 214.246 157.835 214.246 156.23V152.156H213.214V151.445L214.321 150.857L214.868 149.258H215.859V150.939H218.013V152.156H215.859V156.203C215.859 156.59 215.955 156.878 216.146 157.064C216.342 157.247 216.598 157.338 216.912 157.338ZM222.907 158.637C221.731 158.637 220.811 158.295 220.146 157.611C219.485 156.923 219.154 155.978 219.154 154.774C219.154 153.539 219.462 152.569 220.077 151.862C220.692 151.156 221.538 150.803 222.613 150.803C223.611 150.803 224.4 151.106 224.979 151.712C225.557 152.318 225.847 153.152 225.847 154.214V155.082H220.809C220.831 155.816 221.03 156.381 221.403 156.777C221.777 157.169 222.303 157.365 222.982 157.365C223.429 157.365 223.844 157.324 224.227 157.242C224.614 157.156 225.029 157.014 225.471 156.818V158.124C225.079 158.311 224.682 158.443 224.281 158.521C223.88 158.598 223.422 158.637 222.907 158.637ZM222.613 152.02C222.103 152.02 221.693 152.181 221.383 152.505C221.077 152.828 220.895 153.3 220.836 153.92H224.268C224.258 153.296 224.108 152.824 223.816 152.505C223.525 152.181 223.124 152.02 222.613 152.02ZM231.507 150.803C231.83 150.803 232.097 150.826 232.307 150.871L232.149 152.368C231.922 152.313 231.685 152.286 231.438 152.286C230.796 152.286 230.274 152.496 229.873 152.915C229.477 153.334 229.278 153.879 229.278 154.549V158.5H227.672V150.939H228.93L229.142 152.272H229.224C229.474 151.821 229.8 151.464 230.201 151.199C230.607 150.935 231.042 150.803 231.507 150.803ZM236.724 154.939C236.724 153.818 236.887 152.768 237.212 151.791C237.542 150.813 238.016 149.956 238.634 149.22H239.936C239.347 150.015 238.897 150.908 238.583 151.898C238.27 152.884 238.114 153.894 238.114 154.926C238.114 155.959 238.27 156.96 238.583 157.929C238.897 158.898 239.343 159.774 239.923 160.557H238.634C238.012 159.837 237.538 158.997 237.212 158.037C236.887 157.076 236.724 156.043 236.724 154.939ZM246.905 155.98C246.905 156.805 246.607 157.453 246.01 157.922C245.414 158.392 244.59 158.627 243.541 158.627C242.492 158.627 241.632 158.464 240.964 158.138V156.704C241.387 156.903 241.836 157.059 242.31 157.173C242.788 157.288 243.232 157.345 243.643 157.345C244.243 157.345 244.686 157.23 244.969 157.002C245.257 156.773 245.401 156.467 245.401 156.082C245.401 155.735 245.27 155.44 245.007 155.199C244.745 154.958 244.203 154.672 243.382 154.342C242.536 154 241.939 153.608 241.592 153.168C241.245 152.728 241.072 152.199 241.072 151.581C241.072 150.807 241.347 150.197 241.897 149.753C242.447 149.309 243.186 149.086 244.112 149.086C245.001 149.086 245.885 149.281 246.766 149.67L246.283 150.908C245.458 150.561 244.722 150.388 244.074 150.388C243.583 150.388 243.211 150.496 242.957 150.711C242.703 150.923 242.576 151.204 242.576 151.556C242.576 151.797 242.627 152.004 242.729 152.178C242.83 152.347 242.997 152.508 243.23 152.66C243.463 152.812 243.882 153.014 244.487 153.263C245.168 153.547 245.667 153.811 245.985 154.057C246.302 154.302 246.535 154.579 246.683 154.888C246.831 155.197 246.905 155.561 246.905 155.98ZM256.021 158.5H254.497V154.317H250.219V158.5H248.702V149.22H250.219V153.016H254.497V149.22H256.021V158.5ZM266.704 153.847C266.704 155.358 266.325 156.532 265.567 157.37C264.814 158.208 263.746 158.627 262.362 158.627C260.961 158.627 259.884 158.212 259.131 157.383C258.382 156.549 258.007 155.366 258.007 153.834C258.007 152.303 258.384 151.126 259.137 150.305C259.895 149.484 260.974 149.074 262.375 149.074C263.754 149.074 264.82 149.491 265.574 150.324C266.327 151.158 266.704 152.332 266.704 153.847ZM259.62 153.847C259.62 154.99 259.85 155.857 260.312 156.45C260.773 157.038 261.456 157.332 262.362 157.332C263.263 157.332 263.942 157.04 264.399 156.456C264.861 155.872 265.091 155.002 265.091 153.847C265.091 152.709 264.863 151.846 264.406 151.257C263.953 150.669 263.276 150.375 262.375 150.375C261.465 150.375 260.777 150.669 260.312 151.257C259.85 151.846 259.62 152.709 259.62 153.847ZM271.071 154.939C271.071 156.052 270.906 157.089 270.576 158.049C270.25 159.01 269.778 159.846 269.16 160.557H267.872C268.456 159.765 268.902 158.887 269.211 157.922C269.524 156.958 269.681 155.959 269.681 154.926C269.681 153.889 269.524 152.88 269.211 151.898C268.898 150.912 268.447 150.02 267.859 149.22H269.16C269.782 149.96 270.256 150.821 270.582 151.803C270.908 152.781 271.071 153.826 271.071 154.939Z" fill="#046791"/>
<path fill-rule="evenodd" clip-rule="evenodd" d="M314.915 152.541C314.975 152.601 315.004 152.67 315.004 152.748C315.004 152.828 314.975 152.896 314.915 152.956L310.71 157.161C310.65 157.221 310.581 157.25 310.502 157.25C310.424 157.25 310.355 157.221 310.295 157.161L306.091 152.956C306.031 152.896 306 152.828 306 152.748C306 152.67 306.031 152.601 306.091 152.541L306.541 152.091C306.601 152.03 306.671 152 306.749 152C306.828 152 306.897 152.03 306.957 152.091L310.502 155.635L314.048 152.091C314.108 152.03 314.177 152 314.256 152C314.334 152 314.403 152.03 314.463 152.091L314.915 152.541Z" fill="#046791" stroke="#046791"/>
<line x1="53" y1="129.5" x2="319" y2="129.5" stroke="#D6D7D9"/>
<path fill-rule="evenodd" clip-rule="evenodd" d="M314.915 103.541C314.975 103.601 315.004 103.67 315.004 103.748C315.004 103.828 314.975 103.896 314.915 103.956L310.71 108.161C310.65 108.221 310.581 108.25 310.502 108.25C310.424 108.25 310.355 108.221 310.295 108.161L306.091 103.956C306.031 103.896 306 103.828 306 103.748C306 103.67 306.031 103.601 306.091 103.541L306.541 103.091C306.601 103.03 306.671 103 306.749 103C306.828 103 306.897 103.03 306.957 103.091L310.502 106.635L314.048 103.091C314.108 103.03 314.177 103 314.256 103C314.334 103 314.403 103.03 314.463 103.091L314.915 103.541Z" fill="#046791" stroke="#046791"/>
<path d="M60.082 107.286C60.082 108.175 59.7607 108.872 59.1182 109.378C58.4756 109.884 57.5892 110.137 56.459 110.137C55.3288 110.137 54.4036 109.961 53.6836 109.61V108.065C54.1393 108.28 54.6224 108.448 55.1328 108.571C55.6478 108.694 56.1263 108.756 56.5684 108.756C57.2155 108.756 57.6917 108.633 57.9971 108.387C58.307 108.141 58.4619 107.81 58.4619 107.396C58.4619 107.022 58.3206 106.705 58.0381 106.445C57.7555 106.186 57.1722 105.878 56.2881 105.522C55.3766 105.153 54.734 104.732 54.3604 104.258C53.9867 103.784 53.7998 103.214 53.7998 102.549C53.7998 101.715 54.096 101.059 54.6885 100.58C55.2809 100.102 56.0762 99.8623 57.0742 99.8623C58.0312 99.8623 58.9837 100.072 59.9316 100.491L59.4121 101.824C58.5234 101.451 57.7305 101.264 57.0332 101.264C56.5046 101.264 56.1035 101.38 55.8301 101.612C55.5566 101.84 55.4199 102.143 55.4199 102.521C55.4199 102.781 55.4746 103.005 55.584 103.191C55.6934 103.374 55.8734 103.547 56.124 103.711C56.3747 103.875 56.8258 104.091 57.4775 104.36C58.2113 104.666 58.749 104.951 59.0908 105.215C59.4326 105.479 59.6833 105.778 59.8428 106.11C60.0023 106.443 60.082 106.835 60.082 107.286ZM64.3821 108.838C64.774 108.838 65.166 108.776 65.5579 108.653V109.863C65.3802 109.941 65.15 110.005 64.8675 110.055C64.5895 110.109 64.3001 110.137 63.9993 110.137C62.4772 110.137 61.7161 109.335 61.7161 107.73V103.656H60.6839V102.945L61.7913 102.357L62.3382 100.758H63.3294V102.439H65.4827V103.656H63.3294V107.703C63.3294 108.09 63.4251 108.378 63.6165 108.564C63.8124 108.747 64.0677 108.838 64.3821 108.838ZM71.5259 110L71.2046 108.947H71.15C70.7854 109.408 70.4185 109.722 70.0494 109.891C69.6802 110.055 69.2063 110.137 68.6275 110.137C67.8847 110.137 67.3036 109.936 66.8843 109.535C66.4696 109.134 66.2623 108.567 66.2623 107.833C66.2623 107.054 66.5517 106.466 67.1304 106.069C67.7092 105.673 68.591 105.456 69.7759 105.42L71.0816 105.379V104.976C71.0816 104.493 70.9677 104.132 70.7398 103.896C70.5165 103.654 70.1679 103.533 69.6939 103.533C69.3065 103.533 68.9351 103.59 68.5796 103.704C68.2242 103.818 67.8824 103.952 67.5543 104.107L67.0347 102.959C67.4449 102.745 67.8938 102.583 68.3814 102.474C68.869 102.36 69.3293 102.303 69.7623 102.303C70.7239 102.303 71.4485 102.512 71.9361 102.932C72.4283 103.351 72.6744 104.009 72.6744 104.907V110H71.5259ZM69.1334 108.906C69.7167 108.906 70.1838 108.744 70.5347 108.421C70.8902 108.093 71.0679 107.635 71.0679 107.047V106.391L70.0972 106.432C69.3407 106.459 68.7893 106.587 68.4429 106.814C68.1011 107.038 67.9302 107.382 67.9302 107.847C67.9302 108.184 68.0305 108.446 68.231 108.633C68.4315 108.815 68.7323 108.906 69.1334 108.906ZM77.453 108.838C77.8449 108.838 78.2368 108.776 78.6287 108.653V109.863C78.451 109.941 78.2209 110.005 77.9383 110.055C77.6603 110.109 77.3709 110.137 77.0702 110.137C75.548 110.137 74.787 109.335 74.787 107.73V103.656H73.7547V102.945L74.8621 102.357L75.409 100.758H76.4002V102.439H78.5536V103.656H76.4002V107.703C76.4002 108.09 76.4959 108.378 76.6873 108.564C76.8833 108.747 77.1385 108.838 77.453 108.838ZM83.1681 110.137C81.9923 110.137 81.0717 109.795 80.4064 109.111C79.7456 108.423 79.4152 107.478 79.4152 106.274C79.4152 105.039 79.7228 104.069 80.338 103.362C80.9532 102.656 81.7986 102.303 82.8741 102.303C83.8722 102.303 84.6606 102.606 85.2394 103.212C85.8182 103.818 86.1075 104.652 86.1075 105.714V106.582H81.0695C81.0922 107.316 81.2905 107.881 81.6642 108.277C82.0379 108.669 82.5642 108.865 83.2433 108.865C83.6899 108.865 84.1046 108.824 84.4874 108.742C84.8748 108.656 85.2895 108.514 85.7316 108.318V109.624C85.3396 109.811 84.9432 109.943 84.5421 110.021C84.1411 110.098 83.6831 110.137 83.1681 110.137ZM82.8741 103.52C82.3637 103.52 81.9536 103.681 81.6437 104.005C81.3383 104.328 81.156 104.8 81.0968 105.42H84.5284C84.5193 104.796 84.3689 104.324 84.0773 104.005C83.7856 103.681 83.3846 103.52 82.8741 103.52ZM95.5007 110L92.6022 101.653H92.5475C92.625 102.893 92.6637 104.055 92.6637 105.14V110H91.1804V100.006H93.4841L96.2595 107.956H96.3005L99.1579 100.006H101.468V110H99.8962V105.058C99.8962 104.561 99.9076 103.914 99.9304 103.116C99.9577 102.319 99.9805 101.836 99.9987 101.667H99.944L96.943 110H95.5007ZM106.951 110.137C105.775 110.137 104.855 109.795 104.189 109.111C103.529 108.423 103.198 107.478 103.198 106.274C103.198 105.039 103.506 104.069 104.121 103.362C104.736 102.656 105.582 102.303 106.657 102.303C107.655 102.303 108.444 102.606 109.022 103.212C109.601 103.818 109.891 104.652 109.891 105.714V106.582H104.853C104.875 107.316 105.074 107.881 105.447 108.277C105.821 108.669 106.347 108.865 107.026 108.865C107.473 108.865 107.888 108.824 108.27 108.742C108.658 108.656 109.073 108.514 109.515 108.318V109.624C109.123 109.811 108.726 109.943 108.325 110.021C107.924 110.098 107.466 110.137 106.951 110.137ZM106.657 103.52C106.147 103.52 105.737 103.681 105.427 104.005C105.121 104.328 104.939 104.8 104.88 105.42H108.311C108.302 104.796 108.152 104.324 107.86 104.005C107.569 103.681 107.168 103.52 106.657 103.52ZM113.986 110.137C113.042 110.137 112.306 109.795 111.778 109.111C111.249 108.428 110.985 107.468 110.985 106.233C110.985 104.994 111.251 104.03 111.784 103.342C112.322 102.649 113.065 102.303 114.013 102.303C115.006 102.303 115.763 102.67 116.282 103.403H116.364C116.287 102.861 116.248 102.433 116.248 102.118V99.3633H117.862V110H116.604L116.323 109.009H116.248C115.733 109.761 114.979 110.137 113.986 110.137ZM114.416 108.838C115.077 108.838 115.558 108.653 115.859 108.284C116.159 107.91 116.314 107.307 116.323 106.473V106.247C116.323 105.295 116.169 104.618 115.859 104.217C115.549 103.816 115.063 103.615 114.403 103.615C113.837 103.615 113.402 103.845 113.097 104.306C112.792 104.761 112.639 105.413 112.639 106.261C112.639 107.099 112.787 107.74 113.083 108.182C113.379 108.619 113.824 108.838 114.416 108.838ZM121.485 110H119.878V102.439H121.485V110ZM119.783 100.437C119.783 100.149 119.86 99.9284 120.015 99.7734C120.175 99.6185 120.4 99.541 120.692 99.541C120.974 99.541 121.193 99.6185 121.348 99.7734C121.508 99.9284 121.587 100.149 121.587 100.437C121.587 100.71 121.508 100.926 121.348 101.086C121.193 101.241 120.974 101.318 120.692 101.318C120.4 101.318 120.175 101.241 120.015 101.086C119.86 100.926 119.783 100.71 119.783 100.437ZM126.557 110.137C125.414 110.137 124.543 109.804 123.946 109.139C123.354 108.469 123.057 107.509 123.057 106.261C123.057 104.989 123.367 104.012 123.987 103.328C124.611 102.645 125.512 102.303 126.687 102.303C127.485 102.303 128.203 102.451 128.841 102.747L128.355 104.039C127.676 103.775 127.116 103.643 126.674 103.643C125.366 103.643 124.712 104.511 124.712 106.247C124.712 107.095 124.873 107.733 125.197 108.161C125.525 108.585 126.004 108.797 126.633 108.797C127.348 108.797 128.025 108.619 128.663 108.264V109.665C128.376 109.834 128.068 109.954 127.74 110.027C127.416 110.1 127.022 110.137 126.557 110.137ZM134.891 110L134.569 108.947H134.515C134.15 109.408 133.783 109.722 133.414 109.891C133.045 110.055 132.571 110.137 131.992 110.137C131.249 110.137 130.668 109.936 130.249 109.535C129.834 109.134 129.627 108.567 129.627 107.833C129.627 107.054 129.916 106.466 130.495 106.069C131.074 105.673 131.956 105.456 133.141 105.42L134.446 105.379V104.976C134.446 104.493 134.332 104.132 134.105 103.896C133.881 103.654 133.533 103.533 133.059 103.533C132.671 103.533 132.3 103.59 131.944 103.704C131.589 103.818 131.247 103.952 130.919 104.107L130.399 102.959C130.81 102.745 131.259 102.583 131.746 102.474C132.234 102.36 132.694 102.303 133.127 102.303C134.089 102.303 134.813 102.512 135.301 102.932C135.793 103.351 136.039 104.009 136.039 104.907V110H134.891ZM132.498 108.906C133.081 108.906 133.549 108.744 133.899 108.421C134.255 108.093 134.433 107.635 134.433 107.047V106.391L133.462 106.432C132.705 106.459 132.154 106.587 131.808 106.814C131.466 107.038 131.295 107.382 131.295 107.847C131.295 108.184 131.395 108.446 131.596 108.633C131.796 108.815 132.097 108.906 132.498 108.906ZM139.608 110H138.001V102.439H139.608V110ZM137.906 100.437C137.906 100.149 137.983 99.9284 138.138 99.7734C138.298 99.6185 138.523 99.541 138.815 99.541C139.097 99.541 139.316 99.6185 139.471 99.7734C139.631 99.9284 139.71 100.149 139.71 100.437C139.71 100.71 139.631 100.926 139.471 101.086C139.316 101.241 139.097 101.318 138.815 101.318C138.523 101.318 138.298 101.241 138.138 101.086C137.983 100.926 137.906 100.71 137.906 100.437ZM144.181 110.137C143.238 110.137 142.502 109.795 141.973 109.111C141.445 108.428 141.18 107.468 141.18 106.233C141.18 104.994 141.447 104.03 141.98 103.342C142.518 102.649 143.261 102.303 144.209 102.303C145.202 102.303 145.959 102.67 146.478 103.403H146.56C146.483 102.861 146.444 102.433 146.444 102.118V99.3633H148.057V110H146.799L146.519 109.009H146.444C145.929 109.761 145.175 110.137 144.181 110.137ZM144.612 108.838C145.273 108.838 145.754 108.653 146.054 108.284C146.355 107.91 146.51 107.307 146.519 106.473V106.247C146.519 105.295 146.364 104.618 146.054 104.217C145.744 103.816 145.259 103.615 144.598 103.615C144.033 103.615 143.598 103.845 143.293 104.306C142.987 104.761 142.835 105.413 142.835 106.261C142.835 107.099 142.983 107.74 143.279 108.182C143.575 108.619 144.02 108.838 144.612 108.838ZM161.73 104.907C161.73 106.557 161.272 107.819 160.356 108.694C159.44 109.565 158.12 110 156.398 110H153.602V100.006H156.692C158.282 100.006 159.519 100.434 160.404 101.291C161.288 102.148 161.73 103.353 161.73 104.907ZM160.007 104.962C160.007 102.569 158.888 101.373 156.651 101.373H155.236V108.626H156.398C158.804 108.626 160.007 107.405 160.007 104.962ZM165.039 110H163.432V102.439H165.039V110ZM163.336 100.437C163.336 100.149 163.414 99.9284 163.569 99.7734C163.728 99.6185 163.954 99.541 164.246 99.541C164.528 99.541 164.747 99.6185 164.902 99.7734C165.061 99.9284 165.141 100.149 165.141 100.437C165.141 100.71 165.061 100.926 164.902 101.086C164.747 101.241 164.528 101.318 164.246 101.318C163.954 101.318 163.728 101.241 163.569 101.086C163.414 100.926 163.336 100.71 163.336 100.437ZM170.897 102.303C171.221 102.303 171.487 102.326 171.697 102.371L171.54 103.868C171.312 103.813 171.075 103.786 170.829 103.786C170.186 103.786 169.664 103.996 169.263 104.415C168.867 104.834 168.669 105.379 168.669 106.049V110H167.062V102.439H168.32L168.532 103.772H168.614C168.865 103.321 169.191 102.964 169.592 102.699C169.997 102.435 170.432 102.303 170.897 102.303ZM176.127 110.137C174.951 110.137 174.031 109.795 173.365 109.111C172.704 108.423 172.374 107.478 172.374 106.274C172.374 105.039 172.682 104.069 173.297 103.362C173.912 102.656 174.758 102.303 175.833 102.303C176.831 102.303 177.62 102.606 178.198 103.212C178.777 103.818 179.066 104.652 179.066 105.714V106.582H174.028C174.051 107.316 174.249 107.881 174.623 108.277C174.997 108.669 175.523 108.865 176.202 108.865C176.649 108.865 177.064 108.824 177.446 108.742C177.834 108.656 178.248 108.514 178.69 108.318V109.624C178.299 109.811 177.902 109.943 177.501 110.021C177.1 110.098 176.642 110.137 176.127 110.137ZM175.833 103.52C175.323 103.52 174.912 103.681 174.603 104.005C174.297 104.328 174.115 104.8 174.056 105.42H177.487C177.478 104.796 177.328 104.324 177.036 104.005C176.745 103.681 176.343 103.52 175.833 103.52ZM183.66 110.137C182.517 110.137 181.646 109.804 181.049 109.139C180.457 108.469 180.16 107.509 180.16 106.261C180.16 104.989 180.47 104.012 181.09 103.328C181.715 102.645 182.615 102.303 183.79 102.303C184.588 102.303 185.306 102.451 185.944 102.747L185.458 104.039C184.779 103.775 184.219 103.643 183.777 103.643C182.469 103.643 181.815 104.511 181.815 106.247C181.815 107.095 181.977 107.733 182.3 108.161C182.628 108.585 183.107 108.797 183.736 108.797C184.451 108.797 185.128 108.619 185.766 108.264V109.665C185.479 109.834 185.171 109.954 184.843 110.027C184.52 110.1 184.125 110.137 183.66 110.137ZM190.08 108.838C190.472 108.838 190.864 108.776 191.255 108.653V109.863C191.078 109.941 190.848 110.005 190.565 110.055C190.287 110.109 189.998 110.137 189.697 110.137C188.175 110.137 187.414 109.335 187.414 107.73V103.656H186.381V102.945L187.489 102.357L188.036 100.758H189.027V102.439H191.18V103.656H189.027V107.703C189.027 108.09 189.123 108.378 189.314 108.564C189.51 108.747 189.765 108.838 190.08 108.838ZM199.199 106.206C199.199 107.441 198.882 108.405 198.249 109.098C197.615 109.79 196.734 110.137 195.603 110.137C194.897 110.137 194.273 109.977 193.73 109.658C193.188 109.339 192.771 108.881 192.479 108.284C192.188 107.687 192.042 106.994 192.042 106.206C192.042 104.98 192.356 104.023 192.985 103.335C193.614 102.647 194.501 102.303 195.644 102.303C196.738 102.303 197.604 102.656 198.242 103.362C198.88 104.064 199.199 105.012 199.199 106.206ZM193.696 106.206C193.696 107.951 194.341 108.824 195.631 108.824C196.907 108.824 197.545 107.951 197.545 106.206C197.545 104.479 196.902 103.615 195.617 103.615C194.943 103.615 194.453 103.839 194.147 104.285C193.847 104.732 193.696 105.372 193.696 106.206ZM204.607 102.303C204.93 102.303 205.197 102.326 205.406 102.371L205.249 103.868C205.021 103.813 204.784 103.786 204.538 103.786C203.896 103.786 203.374 103.996 202.973 104.415C202.576 104.834 202.378 105.379 202.378 106.049V110H200.772V102.439H202.029L202.241 103.772H202.323C202.574 103.321 202.9 102.964 203.301 102.699C203.707 102.435 204.142 102.303 204.607 102.303ZM210.062 110V100.006H211.696V108.599H215.927V110H210.062ZM220.501 110.137C219.325 110.137 218.405 109.795 217.739 109.111C217.078 108.423 216.748 107.478 216.748 106.274C216.748 105.039 217.056 104.069 217.671 103.362C218.286 102.656 219.132 102.303 220.207 102.303C221.205 102.303 221.993 102.606 222.572 103.212C223.151 103.818 223.44 104.652 223.44 105.714V106.582H218.402C218.425 107.316 218.623 107.881 218.997 108.277C219.371 108.669 219.897 108.865 220.576 108.865C221.023 108.865 221.438 108.824 221.82 108.742C222.208 108.656 222.622 108.514 223.064 108.318V109.624C222.673 109.811 222.276 109.943 221.875 110.021C221.474 110.098 221.016 110.137 220.501 110.137ZM220.207 103.52C219.697 103.52 219.286 103.681 218.977 104.005C218.671 104.328 218.489 104.8 218.43 105.42H221.861C221.852 104.796 221.702 104.324 221.41 104.005C221.118 103.681 220.717 103.52 220.207 103.52ZM227.802 108.838C228.194 108.838 228.586 108.776 228.978 108.653V109.863C228.8 109.941 228.57 110.005 228.287 110.055C228.009 110.109 227.72 110.137 227.419 110.137C225.897 110.137 225.136 109.335 225.136 107.73V103.656H224.104V102.945L225.211 102.357L225.758 100.758H226.749V102.439H228.903V103.656H226.749V107.703C226.749 108.09 226.845 108.378 227.036 108.564C227.232 108.747 227.488 108.838 227.802 108.838ZM233.032 108.838C233.424 108.838 233.816 108.776 234.208 108.653V109.863C234.03 109.941 233.8 110.005 233.517 110.055C233.239 110.109 232.95 110.137 232.649 110.137C231.127 110.137 230.366 109.335 230.366 107.73V103.656H229.334V102.945L230.441 102.357L230.988 100.758H231.979V102.439H234.132V103.656H231.979V107.703C231.979 108.09 232.075 108.378 232.266 108.564C232.462 108.747 232.717 108.838 233.032 108.838ZM238.747 110.137C237.571 110.137 236.651 109.795 235.985 109.111C235.324 108.423 234.994 107.478 234.994 106.274C234.994 105.039 235.302 104.069 235.917 103.362C236.532 102.656 237.377 102.303 238.453 102.303C239.451 102.303 240.239 102.606 240.818 103.212C241.397 103.818 241.686 104.652 241.686 105.714V106.582H236.648C236.671 107.316 236.869 107.881 237.243 108.277C237.617 108.669 238.143 108.865 238.822 108.865C239.269 108.865 239.683 108.824 240.066 108.742C240.454 108.656 240.868 108.514 241.31 108.318V109.624C240.918 109.811 240.522 109.943 240.121 110.021C239.72 110.098 239.262 110.137 238.747 110.137ZM238.453 103.52C237.943 103.52 237.532 103.681 237.223 104.005C236.917 104.328 236.735 104.8 236.676 105.42H240.107C240.098 104.796 239.948 104.324 239.656 104.005C239.364 103.681 238.963 103.52 238.453 103.52ZM247.067 102.303C247.39 102.303 247.657 102.326 247.866 102.371L247.709 103.868C247.481 103.813 247.244 103.786 246.998 103.786C246.356 103.786 245.834 103.996 245.433 104.415C245.036 104.834 244.838 105.379 244.838 106.049V110H243.232V102.439H244.489L244.701 103.772H244.783C245.034 103.321 245.36 102.964 245.761 102.699C246.166 102.435 246.602 102.303 247.067 102.303ZM251.723 106.439C251.723 105.318 251.886 104.268 252.212 103.291C252.542 102.313 253.016 101.456 253.634 100.72H254.935C254.347 101.515 253.896 102.408 253.583 103.398C253.27 104.384 253.113 105.394 253.113 106.426C253.113 107.459 253.27 108.46 253.583 109.429C253.896 110.398 254.343 111.274 254.923 112.057H253.634C253.012 111.337 252.538 110.497 252.212 109.537C251.886 108.576 251.723 107.543 251.723 106.439ZM261.645 107.48C261.645 108.305 261.347 108.953 260.75 109.422C260.153 109.892 259.33 110.127 258.281 110.127C257.231 110.127 256.372 109.964 255.704 109.638V108.204C256.127 108.403 256.575 108.559 257.049 108.673C257.527 108.788 257.972 108.845 258.382 108.845C258.983 108.845 259.425 108.73 259.709 108.502C259.997 108.273 260.141 107.967 260.141 107.582C260.141 107.235 260.009 106.94 259.747 106.699C259.485 106.458 258.943 106.172 258.122 105.842C257.276 105.5 256.679 105.108 256.332 104.668C255.985 104.228 255.811 103.699 255.811 103.081C255.811 102.307 256.087 101.697 256.637 101.253C257.187 100.809 257.925 100.586 258.852 100.586C259.741 100.586 260.625 100.781 261.505 101.17L261.023 102.408C260.198 102.061 259.461 101.888 258.814 101.888C258.323 101.888 257.951 101.996 257.697 102.211C257.443 102.423 257.316 102.704 257.316 103.056C257.316 103.297 257.367 103.504 257.468 103.678C257.57 103.847 257.737 104.008 257.97 104.16C258.202 104.312 258.621 104.514 259.227 104.763C259.908 105.047 260.407 105.311 260.725 105.557C261.042 105.802 261.275 106.079 261.423 106.388C261.571 106.697 261.645 107.061 261.645 107.48ZM267.193 110L264.502 102.25H264.451C264.523 103.401 264.559 104.48 264.559 105.487V110H263.181V100.72H265.321L267.898 108.102H267.936L270.589 100.72H272.735V110H271.275V105.411C271.275 104.949 271.285 104.348 271.306 103.608C271.332 102.867 271.353 102.419 271.37 102.262H271.319L268.532 110H267.193ZM282.466 105.271C282.466 106.803 282.04 107.975 281.19 108.788C280.339 109.596 279.114 110 277.515 110H274.918V100.72H277.788C279.264 100.72 280.413 101.118 281.234 101.913C282.055 102.709 282.466 103.828 282.466 105.271ZM280.866 105.322C280.866 103.1 279.827 101.989 277.749 101.989H276.436V108.724H277.515C279.749 108.724 280.866 107.59 280.866 105.322ZM284.205 110V100.72H285.722V108.699H289.652V110H284.205ZM293.365 106.439C293.365 107.552 293.2 108.589 292.87 109.549C292.544 110.51 292.072 111.346 291.455 112.057H290.166C290.75 111.265 291.196 110.387 291.505 109.422C291.819 108.458 291.975 107.459 291.975 106.426C291.975 105.389 291.819 104.38 291.505 103.398C291.192 102.412 290.742 101.52 290.153 100.72H291.455C292.077 101.46 292.551 102.321 292.876 103.303C293.202 104.281 293.365 105.326 293.365 106.439Z" fill="#046791"/>
<path fill-rule="evenodd" clip-rule="evenodd" d="M352.915 42.7089C352.975 42.6485 353.004 42.5795 353.004 42.5019C353.004 42.4222 352.975 42.3543 352.915 42.2939L348.71 38.0894C348.65 38.029 348.581 37.9999 348.502 37.9999C348.424 37.9999 348.355 38.029 348.295 38.0894L344.091 42.2939C344.031 42.3543 344 42.4222 344 42.5019C344 42.5795 344.031 42.6485 344.091 42.7089L344.541 43.1594C344.601 43.2198 344.671 43.2499 344.749 43.2499C344.828 43.2499 344.897 43.2198 344.957 43.1594L348.502 39.6145L352.048 43.1594C352.108 43.2198 352.177 43.2499 352.256 43.2499C352.334 43.2499 352.403 43.2198 352.463 43.1594L352.915 42.7089Z" fill="#046791" stroke="#046791"/>
<path d="M41.0137 68.3408C41.0137 69.2204 40.6947 69.9062 40.0566 70.3984C39.4186 70.8906 38.5527 71.1367 37.459 71.1367C36.2741 71.1367 35.3626 70.984 34.7246 70.6787V69.5576C35.1348 69.7308 35.5814 69.8675 36.0645 69.9678C36.5475 70.068 37.026 70.1182 37.5 70.1182C38.2747 70.1182 38.8581 69.9723 39.25 69.6807C39.6419 69.3844 39.8379 68.9743 39.8379 68.4502C39.8379 68.1038 39.7673 67.8213 39.626 67.6025C39.4893 67.3792 39.2568 67.1742 38.9287 66.9873C38.6051 66.8005 38.1107 66.5885 37.4453 66.3516C36.5156 66.0189 35.8503 65.6247 35.4492 65.1689C35.0527 64.7132 34.8545 64.1185 34.8545 63.3848C34.8545 62.6146 35.1439 62.0016 35.7227 61.5459C36.3014 61.0902 37.0671 60.8623 38.0195 60.8623C39.013 60.8623 39.9268 61.0446 40.7607 61.4092L40.3984 62.4209C39.5736 62.0745 38.7715 61.9014 37.9922 61.9014C37.377 61.9014 36.8962 62.0335 36.5498 62.2979C36.2035 62.5622 36.0303 62.929 36.0303 63.3984C36.0303 63.7448 36.0941 64.0296 36.2217 64.2529C36.3493 64.4717 36.5635 64.6745 36.8643 64.8613C37.1696 65.0436 37.6344 65.2464 38.2588 65.4697C39.307 65.8434 40.027 66.2445 40.4189 66.6729C40.8154 67.1012 41.0137 67.6572 41.0137 68.3408ZM47.4805 71L44.0898 62.1406H44.0352C44.099 62.8424 44.1309 63.6764 44.1309 64.6426V71H43.0576V61.0059H44.8076L47.9727 69.25H48.0273L51.2197 61.0059H52.9561V71H51.7939V64.5605C51.7939 63.8223 51.8258 63.0202 51.8896 62.1543H51.835L48.417 71H47.4805ZM63.6816 65.9072C63.6816 67.557 63.2327 68.8193 62.335 69.6943C61.4417 70.5648 60.1543 71 58.4727 71H55.7041V61.0059H58.7666C60.3206 61.0059 61.5283 61.4365 62.3896 62.2979C63.251 63.1592 63.6816 64.3623 63.6816 65.9072ZM62.4512 65.9482C62.4512 64.6449 62.123 63.6628 61.4668 63.002C60.8151 62.3411 59.8444 62.0107 58.5547 62.0107H56.8662V69.9951H58.2812C59.6667 69.9951 60.708 69.6556 61.4053 68.9766C62.1025 68.293 62.4512 67.2835 62.4512 65.9482ZM70.5791 68.9561C70.5791 69.6533 70.3193 70.1911 69.7998 70.5693C69.2803 70.9476 68.5511 71.1367 67.6123 71.1367C66.6188 71.1367 65.8441 70.9795 65.2881 70.665V69.6123C65.6481 69.7946 66.0332 69.9382 66.4434 70.043C66.8581 70.1478 67.2568 70.2002 67.6396 70.2002C68.2321 70.2002 68.6878 70.1068 69.0068 69.9199C69.3258 69.7285 69.4854 69.4391 69.4854 69.0518C69.4854 68.7601 69.3577 68.5117 69.1025 68.3066C68.8519 68.097 68.3597 67.8509 67.626 67.5684C66.9287 67.3086 66.432 67.083 66.1357 66.8916C65.8441 66.6956 65.6253 66.4746 65.4795 66.2285C65.3382 65.9824 65.2676 65.6885 65.2676 65.3467C65.2676 64.736 65.516 64.2552 66.0127 63.9043C66.5094 63.5488 67.1908 63.3711 68.0566 63.3711C68.8633 63.3711 69.6517 63.5352 70.4219 63.8633L70.0186 64.7861C69.2666 64.4762 68.5853 64.3213 67.9746 64.3213C67.4368 64.3213 67.0312 64.4056 66.7578 64.5742C66.4844 64.7428 66.3477 64.9753 66.3477 65.2715C66.3477 65.472 66.3978 65.6429 66.498 65.7842C66.6029 65.9255 66.7692 66.0599 66.9971 66.1875C67.2249 66.3151 67.6624 66.4997 68.3096 66.7412C69.1982 67.0648 69.7975 67.3906 70.1074 67.7188C70.4219 68.0469 70.5791 68.4593 70.5791 68.9561ZM73.6211 69.373L73.7236 69.5303C73.6051 69.986 73.4342 70.5146 73.2109 71.1162C72.9876 71.7223 72.7552 72.2852 72.5137 72.8047H71.6592C71.7822 72.3307 71.9167 71.7451 72.0625 71.0479C72.2129 70.3506 72.3177 69.7923 72.377 69.373H73.6211ZM85.3105 68.3408C85.3105 69.2204 84.9915 69.9062 84.3535 70.3984C83.7155 70.8906 82.8496 71.1367 81.7559 71.1367C80.571 71.1367 79.6595 70.984 79.0215 70.6787V69.5576C79.4316 69.7308 79.8783 69.8675 80.3613 69.9678C80.8444 70.068 81.3229 70.1182 81.7969 70.1182C82.5716 70.1182 83.1549 69.9723 83.5469 69.6807C83.9388 69.3844 84.1348 68.9743 84.1348 68.4502C84.1348 68.1038 84.0641 67.8213 83.9229 67.6025C83.7861 67.3792 83.5537 67.1742 83.2256 66.9873C82.902 66.8005 82.4076 66.5885 81.7422 66.3516C80.8125 66.0189 80.1471 65.6247 79.7461 65.1689C79.3496 64.7132 79.1514 64.1185 79.1514 63.3848C79.1514 62.6146 79.4408 62.0016 80.0195 61.5459C80.5983 61.0902 81.3639 60.8623 82.3164 60.8623C83.3099 60.8623 84.2236 61.0446 85.0576 61.4092L84.6953 62.4209C83.8704 62.0745 83.0684 61.9014 82.2891 61.9014C81.6738 61.9014 81.193 62.0335 80.8467 62.2979C80.5003 62.5622 80.3271 62.929 80.3271 63.3984C80.3271 63.7448 80.391 64.0296 80.5186 64.2529C80.6462 64.4717 80.8604 64.6745 81.1611 64.8613C81.4665 65.0436 81.9313 65.2464 82.5557 65.4697C83.6038 65.8434 84.3239 66.2445 84.7158 66.6729C85.1123 67.1012 85.3105 67.6572 85.3105 68.3408ZM94.9424 71H93.7803V66.2969H88.5166V71H87.3545V61.0059H88.5166V65.2578H93.7803V61.0059H94.9424V71ZM106.365 65.9893C106.365 67.5889 105.96 68.8467 105.148 69.7627C104.342 70.6787 103.218 71.1367 101.778 71.1367C100.306 71.1367 99.1693 70.6878 98.3672 69.79C97.5697 68.8877 97.1709 67.6162 97.1709 65.9756C97.1709 64.3486 97.5719 63.0885 98.374 62.1953C99.1761 61.2975 100.315 60.8486 101.792 60.8486C103.228 60.8486 104.349 61.3044 105.155 62.2158C105.962 63.1273 106.365 64.3851 106.365 65.9893ZM98.4014 65.9893C98.4014 67.3428 98.6885 68.3704 99.2627 69.0723C99.8415 69.7695 100.68 70.1182 101.778 70.1182C102.886 70.1182 103.722 69.7695 104.287 69.0723C104.852 68.375 105.135 67.3473 105.135 65.9893C105.135 64.6449 104.852 63.6263 104.287 62.9336C103.727 62.2363 102.895 61.8877 101.792 61.8877C100.685 61.8877 99.8415 62.2386 99.2627 62.9404C98.6885 63.6377 98.4014 64.654 98.4014 65.9893ZM113.263 68.9561C113.263 69.6533 113.003 70.1911 112.483 70.5693C111.964 70.9476 111.235 71.1367 110.296 71.1367C109.302 71.1367 108.528 70.9795 107.972 70.665V69.6123C108.332 69.7946 108.717 69.9382 109.127 70.043C109.542 70.1478 109.94 70.2002 110.323 70.2002C110.916 70.2002 111.371 70.1068 111.69 69.9199C112.009 69.7285 112.169 69.4391 112.169 69.0518C112.169 68.7601 112.041 68.5117 111.786 68.3066C111.535 68.097 111.043 67.8509 110.31 67.5684C109.612 67.3086 109.116 67.083 108.819 66.8916C108.528 66.6956 108.309 66.4746 108.163 66.2285C108.022 65.9824 107.951 65.6885 107.951 65.3467C107.951 64.736 108.2 64.2552 108.696 63.9043C109.193 63.5488 109.874 63.3711 110.74 63.3711C111.547 63.3711 112.335 63.5352 113.105 63.8633L112.702 64.7861C111.95 64.4762 111.269 64.3213 110.658 64.3213C110.12 64.3213 109.715 64.4056 109.441 64.5742C109.168 64.7428 109.031 64.9753 109.031 65.2715C109.031 65.472 109.081 65.6429 109.182 65.7842C109.286 65.9255 109.453 66.0599 109.681 66.1875C109.909 66.3151 110.346 66.4997 110.993 66.7412C111.882 67.0648 112.481 67.3906 112.791 67.7188C113.105 68.0469 113.263 68.4593 113.263 68.9561ZM116.305 69.373L116.407 69.5303C116.289 69.986 116.118 70.5146 115.895 71.1162C115.671 71.7223 115.439 72.2852 115.197 72.8047H114.343C114.466 72.3307 114.6 71.7451 114.746 71.0479C114.896 70.3506 115.001 69.7923 115.061 69.373H116.305ZM126.634 61.9014C125.535 61.9014 124.667 62.2682 124.029 63.002C123.396 63.7311 123.079 64.7314 123.079 66.0029C123.079 67.3109 123.384 68.3226 123.995 69.0381C124.61 69.749 125.485 70.1045 126.62 70.1045C127.317 70.1045 128.113 69.9792 129.006 69.7285V70.7471C128.313 71.0068 127.459 71.1367 126.442 71.1367C124.97 71.1367 123.833 70.6901 123.031 69.7969C122.234 68.9036 121.835 67.6344 121.835 65.9893C121.835 64.9593 122.026 64.057 122.409 63.2822C122.797 62.5075 123.353 61.9105 124.077 61.4912C124.806 61.0719 125.663 60.8623 126.647 60.8623C127.696 60.8623 128.612 61.0537 129.396 61.4365L128.903 62.4346C128.147 62.0791 127.39 61.9014 126.634 61.9014ZM131.187 71V61.0059H132.349V71H131.187ZM135.097 61.0059H137.92C139.246 61.0059 140.205 61.2041 140.798 61.6006C141.39 61.9971 141.687 62.6237 141.687 63.4805C141.687 64.0729 141.52 64.5628 141.188 64.9502C140.859 65.333 140.379 65.5814 139.745 65.6953V65.7637C141.263 66.0234 142.021 66.821 142.021 68.1562C142.021 69.0495 141.718 69.7467 141.112 70.248C140.511 70.7493 139.668 71 138.583 71H135.097V61.0059ZM136.259 65.2852H138.173C138.993 65.2852 139.583 65.1576 139.943 64.9023C140.303 64.6426 140.483 64.2074 140.483 63.5967C140.483 63.0361 140.283 62.6328 139.882 62.3867C139.481 62.1361 138.843 62.0107 137.968 62.0107H136.259V65.2852ZM136.259 66.2695V70.0088H138.344C139.15 70.0088 139.757 69.8538 140.162 69.5439C140.572 69.2295 140.777 68.7396 140.777 68.0742C140.777 67.4544 140.568 66.9987 140.148 66.707C139.734 66.4154 139.1 66.2695 138.248 66.2695H136.259ZM148.837 68.9561C148.837 69.6533 148.577 70.1911 148.058 70.5693C147.538 70.9476 146.809 71.1367 145.87 71.1367C144.877 71.1367 144.102 70.9795 143.546 70.665V69.6123C143.906 69.7946 144.291 69.9382 144.701 70.043C145.116 70.1478 145.515 70.2002 145.897 70.2002C146.49 70.2002 146.946 70.1068 147.265 69.9199C147.584 69.7285 147.743 69.4391 147.743 69.0518C147.743 68.7601 147.616 68.5117 147.36 68.3066C147.11 68.097 146.618 67.8509 145.884 67.5684C145.187 67.3086 144.69 67.083 144.394 66.8916C144.102 66.6956 143.883 66.4746 143.737 66.2285C143.596 65.9824 143.525 65.6885 143.525 65.3467C143.525 64.736 143.774 64.2552 144.271 63.9043C144.767 63.5488 145.449 63.3711 146.314 63.3711C147.121 63.3711 147.91 63.5352 148.68 63.8633L148.276 64.7861C147.524 64.4762 146.843 64.3213 146.232 64.3213C145.695 64.3213 145.289 64.4056 145.016 64.5742C144.742 64.7428 144.605 64.9753 144.605 65.2715C144.605 65.472 144.656 65.6429 144.756 65.7842C144.861 65.9255 145.027 66.0599 145.255 66.1875C145.483 66.3151 145.92 66.4997 146.567 66.7412C147.456 67.0648 148.055 67.3906 148.365 67.7188C148.68 68.0469 148.837 68.4593 148.837 68.9561ZM151.879 69.373L151.981 69.5303C151.863 69.986 151.692 70.5146 151.469 71.1162C151.245 71.7223 151.013 72.2852 150.771 72.8047H149.917C150.04 72.3307 150.174 71.7451 150.32 71.0479C150.471 70.3506 150.576 69.7923 150.635 69.373H151.879ZM159.091 71H157.929V61.0059H163.5V62.0381H159.091V65.6953H163.233V66.7275H159.091V71ZM171.443 71L170.199 67.8213H166.193L164.963 71H163.787L167.738 60.9648H168.716L172.646 71H171.443ZM169.837 66.7754L168.675 63.6787C168.524 63.2868 168.369 62.806 168.21 62.2363C168.11 62.6738 167.966 63.1546 167.779 63.6787L166.604 66.7754H169.837ZM182.695 65.9893C182.695 67.2699 182.438 68.334 181.923 69.1816C181.408 70.0293 180.681 70.6035 179.742 70.9043L182.121 73.3789H180.433L178.484 71.123L178.108 71.1367C176.636 71.1367 175.499 70.6878 174.697 69.79C173.9 68.8877 173.501 67.6162 173.501 65.9756C173.501 64.3486 173.902 63.0885 174.704 62.1953C175.506 61.2975 176.646 60.8486 178.122 60.8486C179.558 60.8486 180.679 61.3044 181.485 62.2158C182.292 63.1273 182.695 64.3851 182.695 65.9893ZM174.731 65.9893C174.731 67.3428 175.019 68.3704 175.593 69.0723C176.172 69.7695 177.01 70.1182 178.108 70.1182C179.216 70.1182 180.052 69.7695 180.617 69.0723C181.182 68.375 181.465 67.3473 181.465 65.9893C181.465 64.6449 181.182 63.6263 180.617 62.9336C180.057 62.2363 179.225 61.8877 178.122 61.8877C177.015 61.8877 176.172 62.2386 175.593 62.9404C175.019 63.6377 174.731 64.654 174.731 65.9893ZM189.593 68.9561C189.593 69.6533 189.333 70.1911 188.813 70.5693C188.294 70.9476 187.565 71.1367 186.626 71.1367C185.632 71.1367 184.858 70.9795 184.302 70.665V69.6123C184.662 69.7946 185.047 69.9382 185.457 70.043C185.872 70.1478 186.271 70.2002 186.653 70.2002C187.246 70.2002 187.701 70.1068 188.021 69.9199C188.34 69.7285 188.499 69.4391 188.499 69.0518C188.499 68.7601 188.371 68.5117 188.116 68.3066C187.866 68.097 187.373 67.8509 186.64 67.5684C185.942 67.3086 185.446 67.083 185.149 66.8916C184.858 66.6956 184.639 66.4746 184.493 66.2285C184.352 65.9824 184.281 65.6885 184.281 65.3467C184.281 64.736 184.53 64.2552 185.026 63.9043C185.523 63.5488 186.204 63.3711 187.07 63.3711C187.877 63.3711 188.665 63.5352 189.436 63.8633L189.032 64.7861C188.28 64.4762 187.599 64.3213 186.988 64.3213C186.451 64.3213 186.045 64.4056 185.771 64.5742C185.498 64.7428 185.361 64.9753 185.361 65.2715C185.361 65.472 185.411 65.6429 185.512 65.7842C185.617 65.9255 185.783 66.0599 186.011 66.1875C186.239 66.3151 186.676 66.4997 187.323 66.7412C188.212 67.0648 188.811 67.3906 189.121 67.7188C189.436 68.0469 189.593 68.4593 189.593 68.9561Z" fill="#5B616B"/>
<path d="M42.5996 43.7046C42.5996 44.7837 42.2095 45.6304 41.4292 46.2446C40.6489 46.8589 39.5726 47.166 38.2002 47.166C36.8278 47.166 35.7044 46.953 34.8301 46.5269V44.6509C35.3835 44.911 35.9701 45.1157 36.5898 45.2651C37.2152 45.4146 37.7962 45.4893 38.333 45.4893C39.1188 45.4893 39.6971 45.3398 40.0679 45.041C40.4442 44.7422 40.6323 44.341 40.6323 43.8374C40.6323 43.3836 40.4608 42.999 40.1177 42.6836C39.7746 42.3682 39.0662 41.9946 37.9927 41.563C36.8859 41.1147 36.1056 40.6029 35.6519 40.0273C35.1981 39.4518 34.9712 38.7601 34.9712 37.9521C34.9712 36.9395 35.3309 36.1426 36.0503 35.5615C36.7697 34.9805 37.7354 34.6899 38.9473 34.6899C40.1094 34.6899 41.266 34.9445 42.417 35.4536L41.7861 37.0723C40.707 36.6185 39.7441 36.3916 38.8975 36.3916C38.2555 36.3916 37.7686 36.5327 37.4365 36.8149C37.1045 37.0916 36.9385 37.4596 36.9385 37.9189C36.9385 38.2344 37.0049 38.5055 37.1377 38.7324C37.2705 38.9538 37.4891 39.1641 37.7935 39.3633C38.0978 39.5625 38.6457 39.8254 39.437 40.1519C40.328 40.5226 40.981 40.8685 41.396 41.1895C41.811 41.5104 42.1154 41.8729 42.3091 42.2769C42.5028 42.6808 42.5996 43.1567 42.5996 43.7046ZM51.2158 47L50.9419 45.7964H50.8423C50.5711 46.2225 50.1838 46.5573 49.6802 46.8008C49.1821 47.0443 48.6121 47.166 47.9702 47.166C46.8579 47.166 46.0278 46.8893 45.48 46.3359C44.9321 45.7826 44.6582 44.9442 44.6582 43.8208V37.8193H46.6255V43.4805C46.6255 44.1833 46.7694 44.7118 47.0571 45.0659C47.3449 45.4146 47.7959 45.5889 48.4102 45.5889C49.2292 45.5889 49.8296 45.3454 50.2114 44.8584C50.5988 44.3659 50.7925 43.5441 50.7925 42.3931V37.8193H52.7515V47H51.2158ZM60.2222 37.6533C61.3677 37.6533 62.2586 38.0684 62.895 38.8984C63.5369 39.7285 63.8579 40.8934 63.8579 42.3931C63.8579 43.8983 63.5342 45.0715 62.8867 45.9126C62.2393 46.7482 61.34 47.166 60.189 47.166C59.0269 47.166 58.1248 46.7482 57.4829 45.9126H57.3501L56.9932 47H55.5322V34.084H57.4829V37.1553C57.4829 37.3822 57.4718 37.7197 57.4497 38.168C57.4276 38.6162 57.411 38.9012 57.3999 39.0229H57.4829C58.1027 38.1099 59.0158 37.6533 60.2222 37.6533ZM59.7158 39.2471C58.93 39.2471 58.3628 39.4795 58.0142 39.9443C57.6711 40.4036 57.494 41.1756 57.4829 42.2603V42.3931C57.4829 43.5109 57.66 44.3216 58.0142 44.8252C58.3683 45.3232 58.9466 45.5723 59.749 45.5723C60.4408 45.5723 60.9637 45.2983 61.3179 44.7505C61.6776 44.2026 61.8574 43.4113 61.8574 42.3765C61.8574 40.2902 61.1436 39.2471 59.7158 39.2471ZM70.7808 37.6533C71.1737 37.6533 71.4974 37.681 71.752 37.7363L71.561 39.5542C71.2843 39.4878 70.9966 39.4546 70.6978 39.4546C69.9175 39.4546 69.2839 39.7091 68.7969 40.2183C68.3154 40.7274 68.0747 41.3887 68.0747 42.2021V47H66.124V37.8193H67.6514L67.9087 39.438H68.0083C68.3127 38.8901 68.7083 38.4557 69.1953 38.1348C69.6878 37.8138 70.2163 37.6533 70.7808 37.6533ZM77.4712 47.166C76.0435 47.166 74.9256 46.751 74.1177 45.9209C73.3153 45.0853 72.9141 43.937 72.9141 42.4761C72.9141 40.9764 73.2876 39.7977 74.0347 38.9399C74.7817 38.0822 75.8083 37.6533 77.1143 37.6533C78.3262 37.6533 79.2835 38.0213 79.9863 38.7573C80.6891 39.4933 81.0405 40.506 81.0405 41.7954V42.8496H74.9229C74.9505 43.7406 75.1912 44.4268 75.645 44.9082C76.0988 45.3841 76.738 45.6221 77.5625 45.6221C78.1048 45.6221 78.6084 45.5723 79.0732 45.4727C79.5436 45.3675 80.0472 45.196 80.584 44.958V46.5435C80.1081 46.7703 79.6266 46.9308 79.1396 47.0249C78.6527 47.119 78.0965 47.166 77.4712 47.166ZM77.1143 39.1309C76.4945 39.1309 75.9964 39.3273 75.6201 39.7202C75.2493 40.1131 75.028 40.6859 74.9561 41.4385H79.123C79.112 40.6803 78.9294 40.1076 78.5752 39.7202C78.221 39.3273 77.734 39.1309 77.1143 39.1309ZM91.0098 37.8193V38.8901L89.4409 39.1807C89.5848 39.3743 89.7038 39.6123 89.7979 39.8945C89.8919 40.1768 89.939 40.4756 89.939 40.791C89.939 41.7373 89.6125 42.4816 88.9595 43.0239C88.3065 43.5662 87.4072 43.8374 86.2617 43.8374C85.9684 43.8374 85.7028 43.8153 85.4648 43.771C85.0443 44.0311 84.834 44.3354 84.834 44.6841C84.834 44.8944 84.9308 45.0521 85.1245 45.1572C85.3237 45.2624 85.6862 45.3149 86.2119 45.3149H87.814C88.8267 45.3149 89.5959 45.5308 90.1216 45.9624C90.6473 46.394 90.9102 47.0166 90.9102 47.8301C90.9102 48.8704 90.4813 49.6729 89.6235 50.2373C88.7658 50.8018 87.5262 51.084 85.9048 51.084C84.6541 51.084 83.6995 50.8626 83.041 50.4199C82.3825 49.9772 82.0532 49.3464 82.0532 48.5273C82.0532 47.9629 82.2303 47.487 82.5845 47.0996C82.9442 46.7178 83.445 46.4521 84.0869 46.3027C83.8268 46.1921 83.611 46.015 83.4395 45.7715C83.2734 45.5225 83.1904 45.2624 83.1904 44.9912C83.1904 44.6481 83.2873 44.3576 83.481 44.1196C83.6746 43.8817 83.9624 43.6465 84.3442 43.4141C83.8683 43.2093 83.481 42.8773 83.1821 42.418C82.8888 41.9531 82.7422 41.4108 82.7422 40.791C82.7422 39.7949 83.0549 39.0229 83.6802 38.4751C84.311 37.9272 85.2075 37.6533 86.3696 37.6533C86.6297 37.6533 86.9009 37.6727 87.1831 37.7114C87.4709 37.7446 87.6867 37.7806 87.8306 37.8193H91.0098ZM83.7964 48.4277C83.7964 48.8483 83.9845 49.172 84.3608 49.3989C84.7427 49.6258 85.2767 49.7393 85.9629 49.7393C87.0254 49.7393 87.8167 49.5871 88.3369 49.2827C88.8571 48.9784 89.1172 48.5744 89.1172 48.0708C89.1172 47.6724 88.9733 47.3874 88.6855 47.2158C88.4033 47.0498 87.8748 46.9668 87.1001 46.9668H85.6226C85.0636 46.9668 84.6182 47.0968 84.2861 47.3569C83.9596 47.6226 83.7964 47.9795 83.7964 48.4277ZM84.6348 40.791C84.6348 41.3665 84.7814 41.8092 85.0747 42.1191C85.3735 42.429 85.7996 42.584 86.353 42.584C87.4819 42.584 88.0464 41.9808 88.0464 40.7744C88.0464 40.1768 87.9053 39.7174 87.623 39.3965C87.3464 39.07 86.923 38.9067 86.353 38.9067C85.7886 38.9067 85.3597 39.0672 85.0664 39.3882C84.7786 39.7091 84.6348 40.1768 84.6348 40.791ZM99.1943 47L98.9204 45.7964H98.8208C98.5496 46.2225 98.1623 46.5573 97.6587 46.8008C97.1606 47.0443 96.5907 47.166 95.9487 47.166C94.8364 47.166 94.0063 46.8893 93.4585 46.3359C92.9106 45.7826 92.6367 44.9442 92.6367 43.8208V37.8193H94.604V43.4805C94.604 44.1833 94.7479 44.7118 95.0356 45.0659C95.3234 45.4146 95.7744 45.5889 96.3887 45.5889C97.2077 45.5889 97.8081 45.3454 98.1899 44.8584C98.5773 44.3659 98.771 43.5441 98.771 42.3931V37.8193H100.73V47H99.1943ZM105.461 47H103.511V34.084H105.461V47ZM114.003 47L113.613 45.7217H113.546C113.104 46.2806 112.658 46.6624 112.21 46.8672C111.762 47.0664 111.186 47.166 110.483 47.166C109.581 47.166 108.876 46.9225 108.367 46.4355C107.863 45.9486 107.611 45.2596 107.611 44.3687C107.611 43.4224 107.963 42.7085 108.666 42.2271C109.368 41.7456 110.439 41.4827 111.878 41.4385L113.463 41.3887V40.8989C113.463 40.3123 113.325 39.8752 113.048 39.5874C112.777 39.2941 112.354 39.1475 111.778 39.1475C111.308 39.1475 110.857 39.2166 110.425 39.355C109.994 39.4933 109.579 39.6566 109.18 39.8447L108.549 38.4502C109.047 38.1901 109.592 37.9937 110.185 37.8608C110.777 37.7225 111.336 37.6533 111.861 37.6533C113.029 37.6533 113.909 37.9079 114.501 38.417C115.099 38.9261 115.397 39.7257 115.397 40.8159V47H114.003ZM111.098 45.6719C111.806 45.6719 112.373 45.4754 112.799 45.0825C113.231 44.6841 113.447 44.1279 113.447 43.4141V42.6172L112.268 42.667C111.349 42.7002 110.68 42.8551 110.259 43.1318C109.844 43.403 109.637 43.8208 109.637 44.3853C109.637 44.7948 109.758 45.113 110.002 45.3398C110.245 45.5612 110.611 45.6719 111.098 45.6719ZM121.54 45.5889C122.016 45.5889 122.492 45.5142 122.968 45.3647V46.834C122.752 46.9281 122.472 47.0055 122.129 47.0664C121.792 47.1328 121.44 47.166 121.075 47.166C119.227 47.166 118.303 46.1921 118.303 44.2441V39.2969H117.049V38.4336L118.394 37.7197L119.058 35.7773H120.262V37.8193H122.876V39.2969H120.262V44.2109C120.262 44.6813 120.378 45.0299 120.61 45.2568C120.848 45.4782 121.158 45.5889 121.54 45.5889ZM132.954 42.3931C132.954 43.8927 132.569 45.0632 131.8 45.9043C131.031 46.7454 129.96 47.166 128.587 47.166C127.73 47.166 126.972 46.9723 126.313 46.585C125.654 46.1976 125.148 45.6414 124.794 44.9165C124.44 44.1916 124.263 43.3504 124.263 42.3931C124.263 40.9045 124.645 39.7424 125.408 38.9067C126.172 38.0711 127.248 37.6533 128.637 37.6533C129.965 37.6533 131.017 38.0822 131.792 38.9399C132.566 39.7922 132.954 40.9432 132.954 42.3931ZM126.271 42.3931C126.271 44.5125 127.055 45.5723 128.621 45.5723C130.17 45.5723 130.945 44.5125 130.945 42.3931C130.945 40.2957 130.165 39.2471 128.604 39.2471C127.785 39.2471 127.19 39.5182 126.819 40.0605C126.454 40.6029 126.271 41.3804 126.271 42.3931ZM139.86 37.6533C140.253 37.6533 140.576 37.681 140.831 37.7363L140.64 39.5542C140.363 39.4878 140.076 39.4546 139.777 39.4546C138.997 39.4546 138.363 39.7091 137.876 40.2183C137.395 40.7274 137.154 41.3887 137.154 42.2021V47H135.203V37.8193H136.73L136.988 39.438H137.087C137.392 38.8901 137.787 38.4557 138.274 38.1348C138.767 37.8138 139.295 37.6533 139.86 37.6533ZM141.146 37.8193H143.271L145.139 43.0239C145.421 43.7655 145.61 44.4627 145.704 45.1157H145.77C145.82 44.8114 145.911 44.4434 146.044 44.0117C146.177 43.5745 146.88 41.5104 148.152 37.8193H150.261L146.334 48.2202C145.621 50.1294 144.431 51.084 142.765 51.084C142.333 51.084 141.913 51.0369 141.503 50.9429V49.3989C141.797 49.4653 142.132 49.4985 142.508 49.4985C143.449 49.4985 144.11 48.9535 144.492 47.8633L144.832 47L141.146 37.8193ZM161.243 40.4175H165.708V46.5103C164.978 46.7482 164.275 46.917 163.6 47.0166C162.931 47.1162 162.206 47.166 161.425 47.166C159.588 47.166 158.171 46.6237 157.175 45.5391C156.179 44.4489 155.681 42.9132 155.681 40.9321C155.681 38.9787 156.243 37.4513 157.366 36.3501C158.49 35.2433 160.036 34.6899 162.006 34.6899C163.274 34.6899 164.474 34.9334 165.609 35.4204L164.912 37.0723C163.927 36.6185 162.942 36.3916 161.957 36.3916C160.662 36.3916 159.638 36.7983 158.885 37.6118C158.133 38.4253 157.756 39.5376 157.756 40.9487C157.756 42.4318 158.094 43.5607 158.769 44.3354C159.45 45.1047 160.426 45.4893 161.699 45.4893C162.341 45.4893 163.027 45.409 163.758 45.2485V42.1191H161.243V40.4175ZM174.897 47L174.624 45.7964H174.524C174.253 46.2225 173.865 46.5573 173.362 46.8008C172.864 47.0443 172.294 47.166 171.652 47.166C170.54 47.166 169.709 46.8893 169.162 46.3359C168.614 45.7826 168.34 44.9442 168.34 43.8208V37.8193H170.307V43.4805C170.307 44.1833 170.451 44.7118 170.739 45.0659C171.027 45.4146 171.478 45.5889 172.092 45.5889C172.911 45.5889 173.511 45.3454 173.893 44.8584C174.28 44.3659 174.474 43.5441 174.474 42.3931V37.8193H176.433V47H174.897ZM181.165 47H179.214V37.8193H181.165V47ZM179.098 35.3872C179.098 35.0386 179.192 34.7702 179.38 34.582C179.574 34.3939 179.847 34.2998 180.202 34.2998C180.545 34.2998 180.81 34.3939 180.999 34.582C181.192 34.7702 181.289 35.0386 181.289 35.3872C181.289 35.7192 181.192 35.9821 180.999 36.1758C180.81 36.3639 180.545 36.458 180.202 36.458C179.847 36.458 179.574 36.3639 179.38 36.1758C179.192 35.9821 179.098 35.7192 179.098 35.3872ZM187.058 47.166C185.913 47.166 185.019 46.751 184.377 45.9209C183.735 45.0908 183.414 43.9259 183.414 42.4263C183.414 40.9211 183.738 39.7507 184.385 38.915C185.038 38.0739 185.94 37.6533 187.091 37.6533C188.298 37.6533 189.216 38.0988 189.847 38.9897H189.947C189.853 38.3312 189.806 37.811 189.806 37.4292V34.084H191.765V47H190.237L189.897 45.7964H189.806C189.18 46.7095 188.264 47.166 187.058 47.166ZM187.581 45.5889C188.383 45.5889 188.967 45.3647 189.333 44.9165C189.698 44.4627 189.886 43.7295 189.897 42.7168V42.4429C189.897 41.2863 189.709 40.4645 189.333 39.9775C188.956 39.4906 188.367 39.2471 187.564 39.2471C186.878 39.2471 186.35 39.5265 185.979 40.0854C185.608 40.6388 185.423 41.4302 185.423 42.4595C185.423 43.4777 185.603 44.2552 185.962 44.792C186.322 45.3232 186.862 45.5889 187.581 45.5889ZM200.298 47L199.908 45.7217H199.841C199.399 46.2806 198.953 46.6624 198.505 46.8672C198.057 47.0664 197.481 47.166 196.778 47.166C195.876 47.166 195.171 46.9225 194.662 46.4355C194.158 45.9486 193.906 45.2596 193.906 44.3687C193.906 43.4224 194.258 42.7085 194.96 42.2271C195.663 41.7456 196.734 41.4827 198.173 41.4385L199.758 41.3887V40.8989C199.758 40.3123 199.62 39.8752 199.343 39.5874C199.072 39.2941 198.649 39.1475 198.073 39.1475C197.603 39.1475 197.152 39.2166 196.72 39.355C196.289 39.4933 195.874 39.6566 195.475 39.8447L194.844 38.4502C195.342 38.1901 195.887 37.9937 196.479 37.8608C197.072 37.7225 197.631 37.6533 198.156 37.6533C199.324 37.6533 200.204 37.9079 200.796 38.417C201.394 38.9261 201.692 39.7257 201.692 40.8159V47H200.298ZM197.393 45.6719C198.101 45.6719 198.668 45.4754 199.094 45.0825C199.526 44.6841 199.742 44.1279 199.742 43.4141V42.6172L198.563 42.667C197.644 42.7002 196.975 42.8551 196.554 43.1318C196.139 43.403 195.932 43.8208 195.932 44.3853C195.932 44.7948 196.053 45.113 196.297 45.3398C196.54 45.5612 196.906 45.6719 197.393 45.6719ZM212.492 47H210.533V41.3555C210.533 40.6471 210.389 40.1187 210.101 39.77C209.819 39.4214 209.368 39.2471 208.748 39.2471C207.924 39.2471 207.32 39.4906 206.938 39.9775C206.557 40.4645 206.366 41.2808 206.366 42.4263V47H204.415V37.8193H205.942L206.216 39.0229H206.316C206.593 38.5858 206.986 38.2482 207.495 38.0103C208.004 37.7723 208.568 37.6533 209.188 37.6533C211.39 37.6533 212.492 38.7739 212.492 41.0151V47ZM218.908 47.166C217.519 47.166 216.462 46.762 215.737 45.9541C215.018 45.1406 214.658 43.9757 214.658 42.4595C214.658 40.9155 215.035 39.7285 215.787 38.8984C216.545 38.0684 217.638 37.6533 219.066 37.6533C220.034 37.6533 220.906 37.8332 221.681 38.1929L221.091 39.7617C220.267 39.4408 219.586 39.2803 219.049 39.2803C217.461 39.2803 216.667 40.3345 216.667 42.4429C216.667 43.4722 216.863 44.2469 217.256 44.7671C217.655 45.2817 218.236 45.5391 219 45.5391C219.868 45.5391 220.69 45.3232 221.465 44.8916V46.5933C221.116 46.798 220.743 46.9447 220.344 47.0332C219.951 47.1217 219.473 47.166 218.908 47.166ZM227.632 47.166C226.205 47.166 225.087 46.751 224.279 45.9209C223.476 45.0853 223.075 43.937 223.075 42.4761C223.075 40.9764 223.449 39.7977 224.196 38.9399C224.943 38.0822 225.969 37.6533 227.275 37.6533C228.487 37.6533 229.445 38.0213 230.147 38.7573C230.85 39.4933 231.202 40.506 231.202 41.7954V42.8496H225.084C225.112 43.7406 225.352 44.4268 225.806 44.9082C226.26 45.3841 226.899 45.6221 227.724 45.6221C228.266 45.6221 228.77 45.5723 229.234 45.4727C229.705 45.3675 230.208 45.196 230.745 44.958V46.5435C230.269 46.7703 229.788 46.9308 229.301 47.0249C228.814 47.119 228.258 47.166 227.632 47.166ZM227.275 39.1309C226.656 39.1309 226.158 39.3273 225.781 39.7202C225.41 40.1131 225.189 40.6859 225.117 41.4385H229.284C229.273 40.6803 229.09 40.1076 228.736 39.7202C228.382 39.3273 227.895 39.1309 227.275 39.1309Z" fill="#212121"/>
<rect x="4" y="154" width="374" height="62" fill="url(#paint0_linear)"/>
<rect x="0.5" y="0.5" width="379" height="215" stroke="#D6D7D9"/>
<defs>
<linearGradient id="paint0_linear" x1="191" y1="154" x2="191" y2="216" gradientUnits="userSpaceOnUse">
<stop stop-color="white" stop-opacity="0"/>
<stop offset="1" stop-color="white"/>
</linearGradient>
</defs>
</svg>
