<?xml version="1.0" standalone="no"?>
<!DOCTYPE svg PUBLIC "-//W3C//DTD SVG 20010904//EN"
 "http://www.w3.org/TR/2001/REC-SVG-20010904/DTD/svg10.dtd">
<svg version="1.0" xmlns="http://www.w3.org/2000/svg"
 width="700.000000pt" height="700.000000pt" viewBox="0 0 700.000000 700.000000"
 preserveAspectRatio="xMidYMid meet">
<metadata>
Created by potrace 1.14, written by Peter Selinger 2001-2017
</metadata>
<g transform="translate(0.000000,700.000000) scale(0.100000,-0.100000)"
fill="#000000" stroke="none">
<path d="M0 3500 l0 -3500 3500 0 3500 0 0 3500 0 3500 -3500 0 -3500 0 0
-3500z m3627 2447 c659 -79 1063 -273 1303 -626 232 -342 295 -900 149 -1318
-69 -196 -176 -359 -344 -521 -122 -119 -231 -196 -395 -281 l-110 -58 466
-694 c489 -727 628 -933 856 -1266 76 -111 138 -204 138 -207 0 -3 -263 -6
-584 -6 l-584 0 -597 960 -598 960 -278 0 -279 0 0 -960 0 -960 -528 0 -529 0
-6 602 c-9 825 -9 4383 1 4392 4 4 408 6 897 3 726 -4 914 -8 1022 -20z"/>
<path d="M2770 4424 l0 -676 298 5 c318 5 412 16 567 64 185 58 311 156 378
293 55 113 71 185 70 330 0 203 -42 321 -152 430 -168 167 -436 229 -983 230
l-178 0 0 -676z"/>
</g>
</svg>
